<svg version="1.2" xmlns="http://www.w3.org/2000/svg" viewBox="0 395 1920 360">

	<path id="Forma 1" style="fill: #6d92ab" d="m62.8 413.4l2 0.3-14.5 87.5-2-0.3zm-14.2 87.6l1.9 0.1-2.7 68.4-2-0.1zm-3 67.7h2l2.1 79.4-2 0.1zm1.8 78.9l1.9-0.4 9.2 43.2-2 0.4zm9.2 43.2l1.9-0.3 7.1 44.7-2 0.3zm7 45.1l0.1-2 174.2 2.3-0.1 2zm174.2 2.3l0.1-2 155.6 5.1-0.1 2zm154.1 5.2l0.1-2 330.9 7.1v2zm331.9 6.3l-2-0.1 0.3-6.9 2 0.1zm-2.2-5.4v-2l259.9 2.9v2zm259.9 2.9l-0.1-2 36.1-2.6 0.1 2zm36.1-2.6l-0.1-2 67.9-4 0.1 2zm-37.5 3.1l0.1-2 96.8 4.3-0.1 2zm96.3 4.1l-0.1-2 44.1-0.2 0.1 2zm42.5-0.7v-2l72-1.3v2zm71.2-1.2l-0.1-2 68.5-3.1v2zm67.5-2.8l-0.2-2 70.6-6.4 0.2 2zm70.3-6.4l-0.2-2 50.9-4.3 0.2 2zm49.1-4.1l-0.3-2 92.4-14.1 0.3 2zm90.5-13.5l-0.5-2 79.5-16.8 0.4 2zm73.9-15.6l-0.5-1.9 33.4-7.9 0.4 1.9zm30.5-8l0.4-1.9 20.8 3.6-0.4 2zm18.1 2.9l0.4-1.9 18.4 3.8-0.4 2zm16.7 3.6l-0.4-1.9 53.5-13.2 0.5 1.9zm48.3-12l-0.6-2 78-22.2 0.5 2zm72.2-20.9l-0.7-1.9 53.7-20.2 0.7 1.9zm51.4-19.4l-0.9-1.8 42.4-20.5 0.9 1.8zm39.7-19.5l-0.9-1.8 27.4-14.4 0.9 1.7zm26.3-13.4l-1.2-1.6 18.6-13.9 1.2 1.6zm15.6-11.2l-1.3-1.5 15.4-14.1 1.3 1.5zm14.9-12.8l-1.7-1.1 9-13.2 1.7 1.1zm7.9-12.2l-1.7-1.1 2.3-3.4 1.6 1.1zm2.4-2.3l-2 0.1-0.3-15.8h2zm-0.2-15l-1.9 0.8-4.1-9.4 1.8-0.8zm-3.3-8.2l-1.5 1.2-8.6-10.4 1.6-1.3zm-8.3-10.1l-1.2 1.6-14.8-11.8 1.2-1.5zm-14.8-11.8l-1.2 1.6-14.7-10.1 1.2-1.7zm-14-9.7l-1 1.7-23.4-12.7 1-1.7zm-22.8-12.3l-0.8 1.8-20.9-10.3 0.9-1.8zm-18.8-9.5l-0.8 1.8-51.3-22.1 0.8-1.8zm-49.9-21.3l-0.6 1.9-60.3-20 0.6-1.9zm-59.9-20.1l-0.5 2-37.1-9.6 0.5-1.9zm-36.9-9.5l-0.5 1.9-23.1-6.3 0.5-1.9zm-22.8-6.4l-0.5 1.9-26.3-5.8 0.4-2zm-26.6-5.8l0.3 2-18.6 3-0.3-1.9zm-19.1 3.4l0.4 2-16.6 3.2-0.4-1.9zm-14.9 2.8l-0.5 1.9-21.7-5.7 0.5-2zm-21.1-5.6l-0.4 2-26.2-6.5 0.5-1.9zm-24.8-6.6l-0.4 1.9-45.3-7.9 0.4-1.9zm-43.8-7.6l-0.4 1.9-34.5-6.6 0.4-1.9zm-32.2-6l-0.4 2-44.7-7.2 0.3-2zm-43.5-6.6l-0.4 2-22.1-3.5 0.4-2zm-19.8-3.2l-0.2 2-31.4-3.7 0.2-2zm-29.3-3.6l-0.2 2-29.6-3.3 0.2-2zm-28.5-3.2l-0.1 2-34.8-2.2 0.1-2zm-33.2-1.9l-0.2 2-42.9-2.9 0.2-2zm-42.1-2.4l-0.1 2-35.9-2.5 0.1-2zm-34.5-2.6v2l-55.2-1.3 0.1-2zm-52.6-0.8l-0.1 2-33.6-2.1 0.1-2zm-29.6-2.2v2l-85.6 0.1v-2zm-82.7 0.1l0.1 2-80.1 3.5-0.1-2zm-77.1 3.2l0.1 2-30.9 1.7-0.1-2zm-29.1 1.4v2h-157.2v-2zm-155.3-0.4l0.1 2-71.8 2.3-0.1-2zm-69.9 3.5h-2l0.1-5.8h2zm0.1-6v2l-36.4 0.3-0.1-2zm-35 0.1v2l-93.8 1.7v-2zm-92.1 1.4l0.1 2-89.4 2.1v-2zm-87.9 1.8l0.1 2-93.4 3.1-0.1-2zm-91.5 2.5l0.1 2-67.4 3.3-0.1-2zm-65.9 3v2l-66 1.1-0.1-2zm-64.3 1v2l-125.2 1.7v-2zm-123.6 1.7l0.1 2-101 2.6-0.1-2zm72.2-0.1h2l0.6 328.2h-2zm156-3.3h2l0.3 335.8h-2zm-154.2 108.5v-2l154.6 0.6v2zm0 119.5v-2l154.3 0.6v2zm188.3-103.7h2l0.3 86.9h-2zm1.2 87v-2h87.6v2zm86.7 0.3l-0.5-2 36.2-9.7 0.6 1.9zm-87.2-86v-2l87.4 0.8v2zm86.9 0.3l0.5-1.9 36.7 9.6-0.5 1.9zm35.3 8.6h2l-0.3 67-2-0.1zm172.3-140.7h2v346.1h-2zm51.2 1.8h2v338.1h-2zm-49.2 158.7v-2h49.9v2zm-0.4 26.4v-2h50.9v2zm50.9-12.7v-2l363 0.4v2zm401.3-76.7v2h-39.3v-2zm-1.1 150.5v2l-38.3-0.4 0.1-2zm-36.9 0.7h-2v-151.2h2zm-53.5 91.2l-0.4-2 90.6-17.7 0.3 2zm90.7-17.7l-0.5-2 13.7-3.9 0.5 1.9zm-217.5-318.6v-2l56 1.1-0.1 2zm55.9 1l0.1-2 73.3 5.1-0.1 2zm73.1 5l0.4-1.9 66.7 12.2-0.3 2zm67 12.2l0.6-1.9 35.7 10.5-0.6 1.9zm20.6 6.3h2v293h-2zm14.1-28.9h2l0.3 349h-2zm0.5 117.2l0.3-2 224.9 34-0.3 1.9zm1.7 117.3l-0.3-1.9 223.4-35.1 0.3 2zm223.3-216.1h2l0.4 310.4h-2zm242.1 36.8h2l-0.3 238.2h-2zm-0.2 72.4l0.9-1.8 101.7 46.5-0.8 1.8zm1.2 96l-0.8-1.8 101.7-48 0.9 1.8zm-141.5-121.1l-1.5-1.4 23.1-23.8 1.5 1.4zm21.9-23.6l0.8-1.8 118.7 49.4-0.7 1.8zm2.6 193.1l-0.8-1.8 116.2-48.4 0.8 1.9zm0.2-1.7l-1.3 1.5-26-22 1.3-1.5zm-26.9-22.2l0.6 1.9-99.3 28.8-0.5-1.9zm2.7-147.9l-0.6 1.9-102.1-29.6 0.6-1.9zm-101.1-29.2l-0.6 1.9-143.8-46.6 0.6-1.9zm-143.9-46.6l-0.4 1.9-81.7-16.3 0.4-2zm144.6 252.1l0.6 1.9-147.1 44.8-0.6-1.9zm-147.1 44.8l0.5 1.9-79.9 17.9-0.4-1.9zm-305.3-318.7h2l0.4 343.6h-2zm0.6 86.5v-2h52.7v2zm53.7-1h-2v-83.7h2zm-0.7 255.9h-2l0.3-83.4h2zm-0.6-84.3v2h-51.6v-2z"/>
</svg>