<svg class="ui icon" xmlns="http://www.w3.org/2000/svg" version="1.0" viewBox="150 70 500 500" preserveAspectRatio="xMidYMid meet"><g transform="translate(0.000000,638.000000) scale(0.100000,-0.100000)">
                    <path d="M3790 5653 c-359 -34 -611 -103 -905 -248 -261 -128 -464 -273 -660 -469 -380 -382 -618 -860 -702 -1413 -22 -149 -22 -517 0 -666 70 -461 245 -865 525 -1217 304 -381 750 -680 1222 -819 520 -153 1106 -128 1600 69 849 338 1425 1082 1551 2000 20 141 17 488 -5 630 -43 286 -113 515 -230 755 -382 780 -1131 1294 -2001 1375 -102 9 -314 11 -395 3z m335 -143 c477 -35 916 -204 1289 -498 92 -72 307 -287 379 -379 234 -297 390 -642 464 -1023 21 -113 26 -172 30 -366 5 -199 2 -250 -16 -377 -73 -500 -284 -933 -633 -1293 -304 -314 -683 -534 -1097 -639 -606 -152 -1248 -56 -1781 269 -492 300 -866 791 -1024 1343 -69 240 -81 336 -81 643 0 247 3 288 24 400 63 334 175 613 359 889 394 595 1049 978 1762 1030 154 12 172 12 325 1z"/>
                    <path d="M4208 5351 c-129 -42 -271 -148 -344 -258 -49 -74 -99 -189 -124 -288 -16 -63 -23 -146 -35 -454 -8 -207 -18 -408 -21 -448 l-6 -72 -43 -26 c-24 -14 -50 -25 -57 -25 -21 1 -145 209 -263 445 -109 217 -160 349 -225 590 -28 106 -72 199 -104 220 -38 25 -87 33 -145 24 -215 -34 -543 -327 -611 -545 -15 -49 -20 -94 -20 -173 0 -172 32 -266 138 -417 86 -121 161 -180 552 -428 l365 -232 3 -60 3 -61 -32 -7 c-17 -3 -124 -6 -238 -6 -334 0 -541 24 -801 91 -260 68 -330 64 -386 -21 -93 -140 -62 -495 64 -745 65 -129 197 -233 366 -284 139 -43 398 -20 544 49 37 17 225 114 419 216 l352 184 51 -31 c27 -17 50 -33 50 -35 0 -12 -88 -177 -147 -277 -149 -252 -271 -413 -458 -607 -159 -166 -200 -229 -190 -290 30 -180 406 -370 730 -370 233 1 456 173 562 434 55 134 61 183 78 584 8 207 18 409 21 449 l6 72 46 26 c30 17 52 24 61 18 24 -15 148 -223 240 -403 96 -188 166 -356 201 -485 87 -318 111 -364 207 -385 152 -35 464 169 623 407 68 101 90 178 90 311 0 168 -30 260 -132 409 -84 122 -161 184 -459 373 -151 96 -318 202 -371 237 l-98 62 0 59 c0 59 0 60 31 66 50 10 432 7 564 -4 156 -14 338 -44 456 -77 270 -74 352 -70 407 19 90 145 59 496 -65 742 -65 128 -194 230 -359 282 -151 48 -402 25 -563 -51 -41 -20 -228 -116 -417 -215 l-343 -180 -51 31 c-27 17 -50 33 -50 35 0 11 88 176 147 277 150 254 265 407 463 613 154 160 195 223 185 284 -18 108 -146 215 -351 294 -185 71 -397 95 -516 57z m-65 -1601 c131 -41 258 -143 332 -265 107 -179 107 -411 0 -590 -169 -282 -525 -374 -804 -208 -35 21 -92 68 -126 105 -252 267 -201 686 109 889 144 95 323 120 489 69z"/>
                    <path d="M3853 3676 c-181 -44 -334 -202 -372 -384 -35 -166 15 -330 138 -453 199 -199 503 -199 702 0 126 127 176 301 134 466 -25 98 -64 165 -134 236 -126 125 -299 176 -468 135z"/>
                    </g>
                    </svg>