<svg version="1.2" xmlns="http://www.w3.org/2000/svg" viewBox="0 370 1920 360">
	<path id="Forma 1" style="fill: #6d92ab" d="m119.8 387.9l0.2 2-8 0.7-0.2-1.9zm-8.2 0.8l0.7 1.8-7.7 3-0.7-1.9zm-8 3.2l1.2 1.6-5.9 4.7-1.3-1.6zm-6.1 4.9l1.5 1.3-5.2 6-1.5-1.4zm-5.4 6.4l1.9 0.6-2.8 8-1.9-0.7zm-2.7 8.2l1.9 0.3-1.5 10.2-1.9-0.3zm-1.5 10.2l1.9 0.3-3.2 22.1-2-0.3zm-3.5 21.7l2 0.2-4.2 47.3-2-0.2zm-4.2 47.2l2 0.1-0.9 38.5h-2zm-0.6 37.4l2 0.1-0.7 45.5h-2zm-1.1 44.5l2-0.1 2.4 37.4-2 0.1zm2.1 36.2l2-0.2 4 41.3-2 0.2zm3.8 40.1l2-0.2 3.9 28-2 0.3zm3.5 26.7l1.9-0.5 2.9 10.9-1.9 0.5zm3.1 11.3l1.5-1.3 6.6 7.9-1.5 1.3zm6.9 8.1l1-1.7 6.5 4.1-1 1.7zm6.6 4.2l0.8-1.8 7.8 3.5-0.8 1.8zm8.1 3.6l0.1-2 8.4 0.3-0.1 2zm6.6 0l0.1-2 595.2 13.1v2zm595.2 13.3l-0.7-1.9 2.1-0.8 0.7 1.9zm2.6-1.2l-1.6-1.1 1.1-1.7 1.7 1.2zm1.3-2l-2-0.5 0.4-1.6 2 0.5zm0.4-1.9h-2l0.1-2.8h2zm-1.5-1.6v-2l350.9 1.5v2zm349.4 1.8v-2l212.7-4.2 0.1 2zm210-4.1l-0.1-2 113.2-5.7 0.1 2zm111.8-5.1l-0.2-2 78-6.6 0.1 2zm76.7-6.8l-0.3-2 90.4-11 0.3 2zm90.4-11.1l-0.3-1.9 80.6-15.4 0.4 1.9zm79.8-15.4l-0.5-1.9 59-15.8 0.5 1.9zm59.1-15.8l-0.6-1.9 44.6-13.8 0.6 1.9zm42.1-12.8l-0.8-1.9 38.8-16.8 0.8 1.9zm38.9-16.9l-1-1.7 27-14.2 1 1.7zm26.2-14l-1.1-1.7 21.4-13.8 1.1 1.7zm20-12.5l-1.4-1.5 14.6-12.8 1.4 1.5zm14.7-12.9l-1.6-1.3 8-10 1.6 1.3zm8.1-10.2l-1.8-0.9 5.6-11.6 1.8 0.9zm5.7-11.9l-2-0.3 1.6-11 2 0.3zm1.6-11.2l-2 0.1-0.4-14 2-0.1zm0.1-13.9l-1.9 0.7-4.2-12.6 1.9-0.7zm-4-11.8l-1.8 1.1-7.4-12.4 1.8-1.1zm-7.8-12.6l-1.4 1.5-13.4-12.6 1.4-1.5zm-12.2-11.8l-1.1 1.6-24.6-17.5 1.2-1.7zm-23-16.9l-0.9 1.7-22.3-11.4 0.9-1.8zm-22.3-11.5l-0.8 1.9-41.9-18.2 0.8-1.8zm-41.3-18.6l-0.6 1.9-47.1-15.3 0.7-1.9zm-45.4-15.1l-0.5 1.9-54.8-14.2 0.5-2zm-54.8-14.2l-0.4 1.9-61.4-12.6 0.4-1.9zm-59.8-12.2l-0.3 2-53.5-8.4 0.3-2zm-53.6-8.4l-0.2 2-60.9-7.4 0.2-2zm-59.6-7.4l-0.2 2-89.1-7.2 0.2-2zm-89.2-7.2l-0.1 1.9-115.1-5.7 0.1-2zm-112-5.8v2l-215.1-2.9v-2zm-212.3-2.9v2h-264v-2zm-337.5 3.1l-0.1-2 76.1-1.5v2zm1.6-1.1l-1.9 0.2-0.5-3.9 2-0.2zm-0.8-4.7l-1.2 1.6-2.2-1.7 1.2-1.6zm-599.7 12.3l-0.1-2 598.3-12.3 0.1 2zm-37.1 92v-2h20v2zm-1.6 64.6v-2l21.4 0.2-0.1 2zm180.5-143.3v2l-93.6 1.1v-2zm-92.6 2.2h-2l0.2-4.9 2 0.1zm-0.9-5.9l0.1 2-51.4 1.4-0.1-2zm-51.6 1.4l0.6 1.9-6.4 2.1-0.6-1.9zm-6.8 2.4l1.4 1.4-6.2 6.4-1.4-1.4zm-6.5 6.9l2 0.3-1 6.8-2-0.3zm-0.9 6.8l2 0.3-4.3 35.4-2-0.2zm-4.3 35.6h2l-0.2 10.5-2-0.1zm-0.1 10.8l1.9-0.5 4.1 17.8-2 0.5zm3.9 17.2h2l0.2 130.3h-2zm-0.2 130.1l2 0.4-3.7 17.8-2-0.4zm-3.7 18h2l0.2 11.3h-2zm0.2 10.1l2-0.1 3.5 36.8-2 0.2zm3.4 37.3l1.8-0.7 2.9 7.5-1.8 0.7zm3.3 8.1l1.1-1.7 8.9 5.8-1.1 1.7zm9.2 5.9l0.5-1.9 7.1 1.5-0.4 2zm6.4 1.8v-2h45.4v2zm44 0v-2h2.5v2zm3.5-1.3l-1.9 0.5-0.6-2.5 1.9-0.5zm-1.6-1.3l0.1-2 8.4 0.4-0.1 2zm9.3-0.9l-1.9 0.6-0.8-2.7 1.9-0.6zm-1.7-1.4v-2h90.1v2zm90.6-1.2h-2l0.8-205.6h2zm0-233.4h-2l0.3-20.7 2 0.1zm0.8-9v-2l29.7-0.2 0.1 2zm31.2-1.8h-2l-0.5-29.5h2zm-0.7-30l-1.6 1.1-4.2-6 1.6-1.1zm-5-6.5v2l-29.7 0.3v-2zm-26.9 31v-2l30-0.8v2zm0.5-2.2l-0.9-1.8 28.7-14.9 0.9 1.8zm-1-1.9l-1.6-1.1 16.4-23.7 1.7 1.1zm-0.4-0.8l-2-0.1 0.8-24.2h2zm-49.9 3.7v-2l50-0.2v2zm1-0.9h-2l0.1-28.3h2zm10-0.2h-2l0.1-29.1h2zm8 0.4h-2l0.1-29.3h2zm9.1-0.5h-2l-0.3-29 2-0.1zm8.3 0.8h-2l0.3-30.1h2zm8-0.9h-2l0.1-29.4h2zm-44.1-1.1l0.1 2-48.8 1-0.1-2zm-49.9 0.9h2l1.1 256h-2zm213.7 4.2v-2h28.9v2zm-0.4-1.2l2-0.1 0.2 8.5-2 0.1zm0.6 8.3l2-0.5 1.5 5.4-2 0.5zm1.7 5.8l1.6-1.2 4.3 5.3-1.6 1.3zm4.4 5.4l1.3-1.5 4.1 3.3-1.3 1.6zm4.2 3.5l0.9-1.8 6.3 3.1-0.9 1.8zm6.4 3.2l0.5-1.9 4.1 1.1-0.6 1.9zm4 1.2v-2l32.1 0.5v2zm32.1 0.5l-0.1-2 24.5-0.4v2zm24.5-1.5l-2 0.1-0.1-7.7h2zm-0.2-8l-1.9 0.8-2.6-6 1.8-0.8zm-2.8-6.2l-1.6 1.1-4.7-6.6 1.6-1.1zm-5-6.9l-1.1 1.7-4.8-3.3 1.1-1.6zm-4.8-3.3l-1 1.7-6.2-3.6 1-1.7zm-6.5-3.7l-0.5 2-4.6-1.2 0.5-1.9zm-30 1.5h-2l-0.1-53.1h2zm8.6-0.3h-2l-0.4-53.2h2zm-0.6 0.8v-2h20.9v2zm-33 13.3l-1-1.8 21.5-12.4 1 1.8zm10.2 8.6l-1.7-1 11.5-21 1.8 0.9zm11.6 4h-2v-25.5h2zm6.8 0.5h-2v-26.4h2zm13.7 0.3h-2l-0.2-27.7h2zm6 0.2l-1.7-1 13.6-21.5 1.7 1.1zm0-0.2l-0.9-1.8 22.4-11.6 0.9 1.8zm1.2-0.6h-2l-0.1-26.5 2-0.1zm-148.4 235.8l2 0.1-0.2 6.6-2-0.1zm0.9 0.9v-2l109.5 2.6-0.1 2zm109.8 8.5l-2 0.1-0.4-7.8 2-0.1zm-130.7-21.8h2v13.1h-2zm1.3 14.1v-2l18.4-0.4v2zm127.6 2.7v-2h17.8v2zm18.4-1.3h-2l-2-211.4h2zm-1-208.3v-2l94.5 1.3-0.1 2zm45.9-31.2v-2h50.3v2zm265.3-80.7h2l0.3 325.6h-2zm145 171.5h2l0.4 32.8h-2zm0.6 33.6l1.4-1.5 32.2 30.5-1.4 1.5zm32.8 30.7v-2l57.3 0.4v2zm58 0l-1.4-1.5 30.2-27.1 1.3 1.5zm35.5-27.5h-2l0.3-83.4h2zm-94.4-79.1v-2l91.8-0.7v2zm0-0.9l2-0.1 1 35.5-2 0.1zm8.3 45.3v-2l45.1-0.1v2zm-2-2.2h2l-0.1 22h-2zm44.4 1.4h2l0.4 21.6h-2zm0.9 20.3l1.2 1.6-9.7 7.1-1.2-1.7zm-45.2 0.7l1.3-1.5 7.7 7.1-1.4 1.4zm-184.9-29.1v-2l147.7 0.9v2zm148 9.2l-2-0.1 0.4-9.3 2 0.1zm77.6-163.9h2l-0.4 117.3h-2zm85.7 167.4v-2l74.5-0.5v2zm-5.1-28.3v-2l158.4 0.8v2zm166.5 23.4v2l-89.6 0.5v-2zm-77.3 1.4h2l-0.1 24.4h-2zm0.9 25.3v-2l76-0.1v2zm77.1-1.1h-2v-23.9h2zm-8.5 0.1h-2l-0.1-24.4h2zm-8.3-0.1h-2v-24.4h2zm-7.8 0.3l-2 0.1-0.2-25h2zm-8.3-0.1h-2l-0.2-24.5 2-0.1zm-8.7 0.3l-2 0.1-0.4-24.9h2zm-8.3-0.8h-2v-24.2h2zm-10.6 1.1l-1.8-0.7 10.2-25.7 1.8 0.8zm-10.7 0.4l-1.6-1.2 20.8-25.6 1.6 1.3zm-5.3-9.9l-1-1.7 25.6-15.1 1 1.8zm-0.7-10.2l-0.3-2 25.9-4.2 0.3 1.9zm-171.6 54.4h2l-0.6 85.6h-2zm215-35.2l2 0.1-0.3 119.5-2-0.1zm114.3 117.8l-2-0.1 1.5-139h2zm0.2-138v-2l98.2 1.5v2zm98.5-0.6v-2l130.6 0.3v2zm-99.4-26.4v-2l101.2 1.8v2zm101.2 1.2v-2l126.4-0.3v2zm-211.5-5.7h-2l-0.7-134.2h2zm111.1 3.2h-2l-0.6-138.4h2zm98.1 0.6l-2 0.1-1.6-86h2zm42.8 0.9h-2v-73.1h2zm69.4-1h-2l-0.3-89.8h2zm-2 26.5h2l-0.4 90.5h-2zm-69 0.6h2l-1 96.2h-2zm-43.4 1h2l0.6 84h-2zm178.5 75.3h-2l0.9-181.7h2zm-1.4-179.3l0.6-1.9 42.9 13.3-0.6 1.9zm0.6 180.3l-0.6-1.9 40.6-12.9 0.6 1.9zm-63.8 12.9l-0.6-1.9 61.9-18.6 0.6 1.9zm-1.7-206.9l0.6-1.9 64.1 20.5-0.6 1.9zm-68 211.8l-0.8-1.9 68.4-26.2 0.7 1.9zm-0.1-191.5h-2l0.3-23.9h2zm-0.9-23l0.7-1.9 67.9 24.3-0.7 1.9zm-691.8 266.4l-0.1 2-313.3-4.9v-2zm-1.5-323.1v2l-454.2 8.3v-2zm-450.8 7.3v2l-154 4.9v-2zm-154.1 4.4l1 1.8-9.7 5.4-1-1.8zm-10.1 5.7l1.7 1.1-8.3 13.3-1.7-1zm-8.3 13.8l2 0.2-6.4 65.7-2-0.2zm-6.5 64.8l2 0.1-1.8 69.1-2-0.1zm-2 68h2l1.7 60.5-2 0.1zm1.6 60.6l2-0.1 3.8 44.9-2 0.2zm3.9 44.6l1.9-0.3 4.7 29.3-2 0.3zm4.9 30.1l1.5-1.3 7.2 8.9-1.6 1.2zm7.5 9.2l0.9-1.8 9.7 4.6-0.8 1.8zm9.7 4.8v-2l150.9 3.5v2zm1472.6-88.9h2l0.4 15.3h-2zm-0.4-138.9l2-0.1 1.1 16.4-2 0.1zm-1503.6 143.2v-2l20.2 0.3v2zm643.1 89.3l0.1-2 53.5 1.8v2zm53.1 0.5v-2h164.3v2zm165.2-1.4v-2l213.3-1.3 0.1 2zm212.8-1.4v-2l114.8-0.9 0.1 2zm115.1-1l-0.6-1.9 99.8-30.8 0.6 1.9zm97.2-57.7h2l-0.4 26.3h-2zm0.2-191.1h-2l-0.5-31.3h2zm-99.7-53.5l0.5-1.9 97.1 23.1-0.5 2zm-541.6 303l-0.2 2-7.2-0.5 0.1-1.9zm-8-305.8l0.1-2 438.6 2.2v2zm437.3 2.4l0.1-2 114.2 1v2zm-128.6 163.7h2l-0.3 31.8h-2z"/>
</svg>