<svg version="1.2" xmlns="http://www.w3.org/2000/svg" viewBox="0 360 1920 360">
	<path id="Forma 3" fill-rule="evenodd" style="fill: #6d92ab" d="m321.5 433.2h-2v-17.3h2zm-0.2-16.7l-1.6-1.2 3.7-4.7 1.6 1.3zm2.9-4.3v-2l275.1-3.5v2zm272.6-3.4v-2l317.7-5.7v2zm317.5-5.7l0.6-1.9 6.5 2-0.6 1.9zm5.8 1.2l2-0.2 0.8 9.4-2 0.1zm1 9.9v-2l24.9 0.4-0.1 2zm23.9-0.9l2-0.2 1.2 13.4-2 0.2zm2.2 14.4v-2h21.2v2zm22.2-1.4l-2 0.1-0.3-9 2-0.1zm-1.6-8.5v-2l52-0.2v2zm2.1-28.6l-0.1-2 50.9-0.4v2zm47.3 27.1h-2l-0.2-28.1h2zm-10.5 0.1h-2v-28.4h2zm-9.7-0.8h-2v-28.1h2zm-11.8 0.1l-2 0.1-0.3-27.6h2zm-12.6 0.7h-2v-28.9h2zm46.6-28.1v-2h153.7v2zm153.7 147.9h-2v-149.2h2zm-154.1-120.1h2l-0.6 26.6h-2zm-1 49.7l2 0.1-1.3 72.5h-2zm-0.2 73.6v-2l154-0.7v2zm160.9-155.9h2l0.6 191.7h-2zm1.7 192.7l-0.1-2 30.5-0.3v2zm26.5 32.6h2l0.4 45.6h-2zm1.3 46.6v-2l123.6 1.3-0.1 2zm124.6 0.3l-2-0.1 0.7-37.7 2 0.1zm-0.5-36.8l0.2-2 7.3 0.7-0.2 2zm6.4-0.4h2l0.3 44.4h-2zm1.3 45.3v-2l101.1-1.9v2zm102.1-2.9h-2l0.3-247.8h2zm-263.4-276.5v-2l24.1-0.3v2zm23-5.8l0.2-2 68.8 5.4-0.2 2zm2.1 4.4h-2v-4.7h2zm66.7 1l0.1-2 46.9 4.1-0.1 2zm46.8 4.1l0.3-2 38.7 6.7-0.4 1.9zm38.7 6.7l0.3-2 35.5 7-0.4 2zm35.5 6.9l0.5-1.9 49.4 12.7-0.5 1.9zm-183.1 293.1l-0.2-2 118.8-11.4 0.2 2zm118.9-11.4l-0.3-2 111.8-21.2 0.4 2zm-120.7-31.7h2v28.2h-2zm1 27.2v2l-120.1-3.2 0.1-2zm-121.5-55.3h2l0.4 54.2-2 0.1zm-0.1-48.8l0.1-2 92.5 1v2zm-88.4 1.1v-2l94.3-0.7v2zm-21.2-1.3v2l-16.1-0.4 0.1-2zm-15.1 0.7h-2v-29.3h2zm0-28.2l-2 0.1-1.3-47.3 2-0.1zm-2.4-48.3v2l-106.8 1.7-0.1-2zm-107.8 2.8h2l1.4 74.4-2 0.1zm2.4 73.4v2l-32.7-0.3v-2zm-34.8 46.5v-2l34.4-0.3 0.1 2zm33.4-1.4h2l-0.3 22.3h-2zm0.6 23.3v-2l32 0.7v2zm79.7 2.8v-2l27.8 0.3v2zm28.8-0.7h-2v-18h2zm-1-17.1l0.1-2 91.5 0.6v2zm114.9 1.8v-2h10.1v2zm-143.7 14h2v11.8h-2zm1 12.3v-2l92.6 0.5v2zm38.8 25.5v-2h51.3v2zm48.9 0v-2h4.5v2zm5.5-1h-2l-0.3-25.6h2zm-11.4-25.2l2-0.1 0.3 25.5-2 0.1zm-5.4 25.5h-2l0.1-25.2h2zm-7.3 0h-2l0.1-25.9h2zm-7-0.1h-2l-0.3-25.5h2zm-6.6 0h-2l-0.2-25.5h2zm-6.5-0.1h-2l-0.1-25.4h2zm-6.6 0.2h-2v-26.1h2zm-655.7-249.3l2-0.2 0.7 6.9-2 0.2zm0.7 7.1l2-0.4 1 5.5-1.9 0.4zm0.6 5l1.9-0.7 2.5 6.8-1.8 0.7zm2.6 7l1.7-1 5.1 9.1-1.7 1zm5.3 9.2l1.4-1.3 4.9 5.4-1.5 1.3zm4.9 5.5l1.3-1.6 4.9 4-1.3 1.5zm4.9 4l1.2-1.6 5.8 4-1.1 1.7zm5.9 4.1l0.9-1.8 4.9 2.2-0.9 1.9zm5.3 2.3l0.1-2 4 0.2-0.1 2zm2.6-1.2h2l0.4 119.6h-2zm0.5 116.8l0.7 1.9-8.1 2.8-0.6-1.9zm-8.2 2.9l1 1.7-8.2 5.1-1.1-1.7zm-8.5 5.3l1.5 1.3-5.7 6.3-1.5-1.4zm-5.8 6.3l1.6 1.2-3.8 5.2-1.6-1.2zm-3.9 5.2l1.7 0.9-3.2 6.5-1.8-0.9zm-3.3 6.7l1.9 0.6-2.1 6.5-1.9-0.6zm-2.4 6.6l2 0.1-0.8 8.3-2-0.2zm-0.7 8.3h2l-0.2 20.5h-2zm0.2 21.2l1.3-1.5 4.5 3.9-1.3 1.6zm562.9-12.3l2 0.1-0.4 14.1h-2zm0.8 13.2v2h-27.4v-2zm-28.5 1l2-0.1 0.2 6.8h-2zm0.6 6l1.3 1.5-6.1 5.1-1.3-1.5zm-5.5 4.8v2l-154.7-0.9v-2zm-525.7-8.9v-2l136 3.4v2zm133.1 3.7l0.1-2 243 6.4-0.1 2zm-107.2-5.6h-2l-0.3-15.9h2zm-0.4-15.5l-1.8-0.8 3.6-9 1.9 0.8zm3.5-8.7l-1.5-1.4 5.2-5.7 1.5 1.4zm5-5.5l-1-1.7 6.3-3.9 1 1.7zm6.2-3.8l-0.7-1.9 7.5-3.1 0.8 1.9zm6.5-2.9l-0.4-2 8.3-1.3 0.3 2zm8-1.3l0.1-2 21.3 0.1v2zm-0.9 39.4l-2-0.1 0.2-12.5h2zm-0.7-11.6v-2l17 0.1v2zm22.7-28.9l1.9 0.5-7.6 27.5-2-0.6zm-51.3 36.2v-2h27.4v2zm-0.6-6.2v-2l29.1 0.1v2zm28.5-2.5l-0.8 1.9-25.4-11.6 0.9-1.8zm2.7-0.3l-1.6 1.2-16.7-22.1 1.6-1.2zm0.6 0.9h-2l-0.1-27.9h2zm8.1 0h-2l-0.1-28.1h2zm-31.3-234.9h2l0.1 17.9h-2zm0.2 18.2l1.9-0.4 1.9 8.9-2 0.4zm2.1 9.4l1.6-1.2 4.3 5.3-1.6 1.3zm4.2 5.4l1.3-1.5 6 5.3-1.3 1.5zm6.2 5.6l0.7-1.9 8.5 3-0.7 1.9zm8.3 3.1v-2l42.4 0.1v2zm42.5 0.1v-2l13-0.1v2zm13.5-1.2h-2l-0.1-7.7h2zm-0.3-8.2l-1.7 1-4.9-8 1.7-1.1zm-4.5-7.9l-1.3 1.5-5.2-4.8 1.4-1.4zm-5-4.4l-1.2 1.6-4.3-3.2 1.2-1.6zm-4.6-3.3l-0.6 1.9-5-1.4 0.6-1.9zm-5-1.4l-0.7 1.9-3.3-1.1 0.6-1.9zm-24.2 0.6v-2h21.5v2zm1.3 0h-2v-16.2h2zm-33.4-11.1v-2l32.7 0.1v2zm-0.2 7v-2l32.6-0.3v2zm0.7 7.6l-0.2-2 32.6-3.1 0.2 2zm31.7-4.9l1.1 1.7-25.4 17-1.1-1.6zm-0.7 0.7l1.8 0.9-11.3 24.6-1.8-0.8zm0.2-0.4h2l0.5 25.5h-2zm8.7 0.1h2l-0.1 26h-2zm6.5 0.2h2l0.2 25.5h-2zm3.8 26l-1.7-1.1 13.6-21.1 1.7 1zm3.2 0.2l-1.1-1.7 18.9-11.8 1 1.7zm-19.4 194.8v-2l14.9 0.2v2zm14.8 0l-0.7-1.8 11.5-4.2 0.7 1.9zm11.6-4l-1.2-1.6 6.7-5 1.2 1.6zm7-5.3l-1.8-1 3.6-6.7 1.7 1zm3.6-6.6l-1.8-0.9 3.5-7.1 1.8 0.8zm3.5-7.3l-2-0.5 1.7-6.3 2 0.5zm-32.6-5.5v-2l34.5 0.1v2zm0.7 0.7h2l0.1 26.2h-2zm-0.8 1l1.4-1.4 20.3 18.9-1.4 1.5zm1.8-0.2l0.5-1.9 27.8 8.2-0.6 1.9zm242-0.7l2-0.1 0.5 46.9h-2zm50.3 0.3h2l0.3 49.2h-1.9zm-50.8 0.9v-2l52.7 0.5v2zm616.8-7.9h2l0.2 18.4-2 0.1zm0.2 19.2v-2l19.9-0.2v2zm21-0.1h-2l-0.1-19.3 2-0.1zm-21.2-18.4v-2l21.1-0.1v2zm200-118.1l0.1-2 21.4 0.5-0.1 2zm20.4-0.4l2-0.1 0.5 27.3-2 0.1zm-21.7-1.7l2-0.1 0.2 29.2h-2zm0.1 30v-2l24.3 0.4v2zm-17.7-101.2v-2h9.8v2zm-0.7 23.7l0.1-2 10.2 0.2-0.1 2zm11.2-0.8h-2l-0.5-24.9 2-0.1zm-4.9-24.7h-2l-0.3-19.8h2zm-1.7-18.8l0.9-1.8 14.4 7.2-0.9 1.8zm14.4 7.1l1-1.7 16 9.6-1 1.8zm15.8 9.5l1.4-1.6 14.6 12.9-1.3 1.5zm14.6 12.7l1.5-1.3 10.4 12-1.5 1.3zm10.3 11.8l1.7-0.9 8.3 15.2-1.7 0.9zm8.2 15.1l1.8-0.7 5.4 12.8-1.9 0.7zm11.6 30.9l1.9-0.5 3.4 14.4-2 0.4zm2.8 13.3l2-0.2 2.2 18.3-2 0.3zm2.7 47.6l2 0.3-1.9 15.7-2-0.3zm-1.8 15.6l2 0.5-3 14.1-2-0.4zm-2.9 14.1l1.8 0.7-6.6 17.9-1.9-0.7zm-6 17.1l1.8 0.8-4.6 11.5-1.9-0.8zm-3.8 10.8l1.8 0.9-7.4 13.7-1.7-0.9zm-6.5 12.4l1.7 1.1-6.9 10.6-1.7-1.1zm-12.8 26.8l-1.7-1.1 10.3-17 1.7 1zm-0.4-8.8l1.4 1.4-10.1 9.7-1.4-1.5zm-10 9.6l1.2 1.6-13.9 10-1.2-1.6zm-13.8 9.9l1 1.7-10.5 6-1-1.7zm-10.4 5.9l0.8 1.8-12.8 5.8-0.8-1.9zm-10.4 6.2h-2v-224.4h2zm56-193.3l-0.7-1.8 13.5-5.1 0.7 1.9zm-1.5-1.2l1.8-0.7 7.3 19.6-1.8 0.7zm7.7 18.8l-0.7-1.8 13.1-4.8 0.7 1.9zm-12.3-58.4l-1.9 0.7-5.1-13.3 1.9-0.7zm-5.1-13.1l-2 0.3-1.2-9.3 2-0.3zm-1.4-8.6l-1.6-1.2 5.5-7.3 1.6 1.2zm5.3-7.1l-1.1-1.7 8.4-5.3 1.1 1.6zm7.7-5.2v-2h8.2v2zm7.9 0l0.4-1.9 106.9 19.2-0.4 2zm104.6 18.2l0.6-1.9 95.7 28.1-0.5 1.9zm93.4 27.4l0.8-1.9 57.7 25.2-0.8 1.8zm56.1 24.6l1-1.7 24.6 14.4-1.1 1.8zm23 14l1.1-1.6 21.8 15.4-1.1 1.7zm19.7 14.3l1.4-1.4 12.5 13.9-1.5 1.4zm12.3 13.5l1.9-0.6 4.2 12.2-1.9 0.7zm4.1 12l2-0.1 0.6 18.3h-2zm0.4 17.2l2 0.5-2.6 8.8-1.9-0.6zm-2.7 8.5l1.7 1-7.7 13.7-1.8-1zm-6.9 13l1.4 1.5-14.1 13.1-1.4-1.5zm-13.9 13l1.1 1.7-24.4 15.5-1.1-1.7zm-23.1 14.6l0.9 1.8-25.4 13.6-0.9-1.7zm-25.3 13.6l0.8 1.9-31 13.1-0.8-1.9zm-30.6 13.1l0.6 1.9-34.5 12.3-0.6-1.9zm-33.5 11.9l0.6 1.9-36.3 10.5-0.6-1.9zm-36.2 10.5l0.4 1.9-46.5 11.5-0.5-1.9zm-45 10.7l0.4 1.9-49.8 10.1-0.4-1.9zm-49.7 10.1l0.3 2-38.9 5.9-0.3-2zm-38.8 6l0.3 1.9-12.3 2-0.3-1.9zm-11.8 2l-0.7 1.9-7.3-2.6 0.6-1.9zm-7-2.4l-1.2 1.6-5.4-4.2 1.2-1.6zm-5.1-3.9l-1.7 1.1-4.3-6.8 1.6-1zm-3.8-5.4l-2-0.1 0.6-11.7 2 0.1zm7.1-28.3l1.5 1.4-8.2 9.2-1.5-1.3z"/>
	<path id="Forma 1" style="fill: #6d92ab" d="m130.4 376.5v2l-38.9 1.1v-2zm-38.2 0.7l0.9 1.8-11 5.9-0.9-1.8zm-10.2 5.4l1.6 1.2-8.2 10.7-1.6-1.2zm-8.3 10.9l1.8 0.8-2.5 6.2-1.8-0.8zm-2.6 6.4l1.9 0.3-1.9 13.6-2-0.3zm-2 13.5l2 0.3-3.4 26.7-2-0.2zm-3.4 26l2 0.1-3.9 50.8-2-0.2zm-4.8 49.7h2l-0.3 63.7h-2zm-0.8 62.6l2-0.1 3.9 59.7-2 0.2zm4 59.8l2-0.2 5 49.6-2 0.2zm4.6 49.1l1.9-0.4 2.8 10.9-1.9 0.5zm3 11.3l1.6-1.1 8.2 12.1-1.7 1.2zm8.6 12.4l0.9-1.8 11 5.7-0.9 1.7zm11.3 5.8l0.2-2 25.4 2-0.2 2zm25.4 1.9l0.1-2 429.2 9.9v2zm426.4 9.6v-2l152.8 2.5v2zm153.1 2.5l-0.8-1.9 2.6-1.1 0.8 1.8zm3.1-1.9l-2-0.2 0.3-3.6 2 0.1zm-1.3-3.6v-2l321 1.2v2zm321.1 1.1l-0.1-2 197.3-2.3v2zm196.2-1.9v-2l156.9-7.1 0.1 2zm153.4-6.8l-0.2-1.9 144.3-13.6 0.2 2zm142.4-13l-0.4-1.9 119.8-24.3 0.4 2zm117.3-23.7l-0.5-1.9 60.3-16.4 0.5 2zm60.4-16.4l-0.6-1.9 50.7-17.8 0.7 1.9zm50.8-17.8l-0.9-1.8 48.2-24.5 0.9 1.8zm47.7-24.2l-1.2-1.6 15.1-10.1 1.2 1.6zm15.1-10.2l-1.3-1.5 15-12.5 1.3 1.5zm15-12.6l-1.5-1.3 7.4-8.7 1.5 1.3zm6.9-8.5l-1.8-1 5.8-10.6 1.7 1zm5.9-10.8l-1.9-0.6 3-10.4 2 0.5zm3.1-10.7h-2v-16.8h2zm-0.2-16.3l-2 0.4-2.2-10.4 1.9-0.4zm-2.3-10.7l-1.8 0.9-4.5-9.7 1.8-0.8zm-4.6-9.5l-1.6 1.2-8.6-10.8 1.5-1.2zm-8.9-10.9l-1.4 1.5-11.8-10.3 1.3-1.5zm-11.8-10l-1.2 1.6-15.4-11 1.2-1.7zm-15.7-11.1l-1 1.7-13.2-8 1.1-1.7zm-12.7-7.6l-0.8 1.8-26.4-12.9 0.9-1.8zm-25.4-12.8l-0.8 1.8-41.7-16.7 0.7-1.8zm-41.8-16.8l-0.6 1.9-39-12.3 0.6-1.9zm-38.3-12.4l-0.5 1.9-32.4-8 0.4-1.9zm-32.1-8.1l-0.4 2-38.9-9 0.5-2zm-38.3-9l-0.4 2-54.9-10.4 0.4-2zm-54.8-10.6l-0.3 2-29.6-4.2 0.3-2zm-28.8-4.6l-0.2 1.9-31.3-3.3 0.2-2zm-30.6-3.6l-0.3 2-38-4.3 0.2-2zm-36.5-4.3l-0.2 2-47.6-4.2 0.1-2zm-46.6-4.2l-0.1 2-54.9-3.7 0.1-2zm-53.5-3.7l-0.1 2-57.5-3.3 0.1-2zm-56.2-3.7l-0.1 2-69-1.8v-2zm-67.7-2.1l-0.1 2-118.2-1.1 0.1-2zm-116.5-1.3v2l-128.8-1.1v-2zm-127.9-1.3l-0.1 2-93.1-0.8v-2zm-92.6-0.7v2h-80.8v-2zm-79.2-0.3v2l-111.1 2.4v-2zm-683.6 10.8l-0.1-2 427.7-10.4v2zm427.7-10.3l-0.1-2 142.4-2.4v2zm140.4-2.9l0.7-1.9 4.1 1.4-0.7 1.9zm3 0.5l2-0.1 0.2 5.2h-1.9zm-590.5 23.1l0.1 2-11.6 0.5-0.1-2zm-11.9 0.7l0.8 1.8-6.2 2.9-0.9-1.8zm-6.6 3.3l1.6 1.1-4.2 6.1-1.7-1.1zm-4.3 6.4l1.9 0.4-2 8.8-2-0.4zm-2 8.9l2 0.3-1.7 13.4-2-0.3zm-1.6 13.5l2 0.2-2.8 24.3-2-0.3zm-2.7 24.4h2l0.2 6.8h-2zm0.2 7.1l1.9-0.6 4.8 16-1.9 0.6zm4.5 14.6h2l-0.4 133.3h-2zm-0.1 132l1.9 0.4-3.6 16.4-2-0.5zm-3.5 15.6l2 0.1-0.4 8.5-2-0.1zm-0.5 7.4h2l0.3 13.2h-2zm0.4 12.3l2-0.3 2.6 22.7-2 0.2zm2 22.5l2-0.4 2.2 9.2-2 0.4zm2.3 9.4l1.8-0.8 2.8 6-1.8 0.9zm3 6l1.3-1.5 3.7 3.3-1.4 1.5zm3.7 3.7l0.6-1.9 8.9 3.1-0.7 1.9zm8 3.2l0.1-2 9.4 0.2-0.1 2zm601.8-310.5l0.1 2-520.9 11.9v-2zm-518.8 11.4l0.1 2-65.5 3.1-0.1-1.9zm-64.8 2.5l1.2 1.7-11.3 7.6-1.1-1.6zm-10.9 7.3l1.8 1-5.3 9.1-1.8-1zm593.3 305.5v2l-575.9-13.6v-2zm-574.4-13l-0.5 1.9-11.2-2.4 0.4-2zm-10.9-2.3l-1 1.7-4.6-2.7 1.1-1.7zm-3.4-2.5l-1.5 1.3-6.7-7.6 1.5-1.3zm-6.5-7.3l-1.9 0.7-3-8.8 1.9-0.6zm-3.7-270.8l1.9 0.3-1.2 7.5-2-0.3zm-1.2 7.7l2 0.1-1.8 24-2-0.2zm2.9 255h-2l-3-233.1h2zm5-78.4h-2l-0.4-105.9h2zm7.6-0.2h-2l0.4-104.9h2zm-16.3-104.5l0.1-2 58.7 0.8-0.1 2zm-0.4-25.2v-2l58.1 0.2v2zm57.5-0.1l1.1-1.6 3.9 2.4-1.1 1.7zm3.1 1h2l0.1 22.5h-2zm0.7 21.6l1 1.7-3.6 2.2-1-1.7z"/>
	<path id="Forma 2" style="fill: #6d92ab" d="m104.4 582.6h2v6.3h-2zm7.9 0.1h2v6h-2zm-7.6 5.7v-2l49.8 0.4-0.1 2zm49.2 0.2l1.3-1.6 4.6 3.8-1.3 1.5zm4.3 3h2l0.1 21.2h-2zm0.9 20l1.4 1.5-4.1 3.7-1.3-1.5zm-53.7 5.5l0.1-2 50.6 0.2v2zm-6.3-28.6l0.1-2 9.1 0.1v2zm0.4 28.7v-2l8.2-0.1v2zm54.5-138.7h2l-0.5 109.4h-2zm-3.6 1.3h2l0.2 107.7h-2zm-7.4 9.1h2l0.6 92.8h-2zm-30-0.4v-2l31.8 0.4v2zm-0.2 93.3v-2l32.4 0.8-0.1 2z"/>
	<path id="Forma 4" style="fill: #6d92ab" d="m1526.1 517.4h2l0.1 34.6h-2z"/>
	<path id="Forma 5" style="fill: #6d92ab" d="m821.2 668.1h-2v-264.5h2z"/>
</svg>