<svg version="1.2" xmlns="http://www.w3.org/2000/svg" viewBox="0 370 1920 360">

	<path id="Forma 1" style="fill: #6d92ab" d="m208.4 382.9l0.1 2-28.5 1.1-0.1-2zm-29 1.2l1.1 1.7-8.5 5.4-1-1.7zm-8.7 5.6l1.6 1.2-6.8 9-1.6-1.2zm-7 9.4l1.9 0.3-3.2 19.9-2-0.3zm-2.7 19.3l2 0.1-6.1 62.6-2-0.2zm-5.9 60.9h2l-0.7 78h-2zm-1.1 77.1l2-0.1 2.5 49.5-2 0.1zm2.6 49.5l1.9-0.1 4.4 50-2 0.2zm4.3 50.1l1.9-0.4 2.7 13.8-1.9 0.4zm2.8 14.1l1.7-1 3.4 6.1-1.7 1zm3.8 6.4l1.2-1.6 5.9 4.5-1.2 1.6zm6.2 4.6l0.7-1.9 6.7 2.7-0.8 1.9zm6.8 2.7l0.4-1.9 8.1 1.6-0.4 1.9zm7.3 1.9l0.1-2 149.2 2.4v2zm8-301.9l0.7 1.9-8.7 3.2-0.7-1.9zm-9.1 3.5l1.4 1.5-7 6.3-1.3-1.5zm-7.1 6.6l1.8 0.8-2.9 6.3-1.8-0.8zm-3.1 6.4l2 0.2-3.3 22.6-2-0.3zm-3 22.6l2 0.2-5.5 64.4-2-0.2zm-5.7 64.3h2l-1 54.9-2-0.1zm-0.8 54.2l2-0.1 1 42h-2zm1.5 41.3l2-0.1 5.2 70.2-2 0.2zm5.5 70.3l2-0.2 2 15-2 0.3zm1.7 14l1.8-1 4.3 8.3-1.8 0.9zm4.5 8.5l1.5-1.4 3.7 4.1-1.5 1.4zm3.1 4.7l0.7-1.8 6.9 2.6-0.8 1.9zm5.9 2l0.7-1.9 8.5 3.2-0.7 1.8zm17.2-297.3l-0.1-2 830.9-12.3 0.1 2zm126.1 302.8v-2l737.8 10.4v2zm737.4 9.9l-0.1-2 133.2-6.6 0.1 2zm133.4-6.7l-0.4-1.9 90.7-15.1 0.3 1.9zm89.2-15.2l-0.5-1.9 144.6-40.3 0.6 1.9zm144.7-40.2l-0.6-2 111.6-36.1 0.6 2zm111.2-37.9l2-0.1 0.5 25-2 0.1zm2 25.9l-0.8-1.9 216.9-87.7 0.7 1.8zm215.8-90.1l-0.7 1.8-216.4-86.9 0.8-1.8zm-217.4-86h2l0.2 23.3h-2zm-112.8-11.8l0.6-1.9 113.6 37.5-0.7 1.9zm2.6-2l-0.6 2-117.2-34.2 0.6-1.9zm-118.7-34.2l-0.4 2-91-17.8 0.3-2zm-91.1-17.7l-0.2 1.9-83.6-7.5 0.2-1.9zm-83.7-7.5v2l-111.1-3.7 0.1-2zm-668.2 22.6h2v275.9h-2zm308.5-17.5h2v310.3h-2zm50.3-1.6h2v312.9h-2zm177.2-0.6h2l0.6 314.4h-2zm194.8 29.5h2v256.8h-2zm455 86.9h2l1 82.1h-2zm-114-22h2v126.2h-2zm-112.6-36.9h2v199.7h-2zm-212.1-52.9h2v304.4h-2zm-960 154.2l-0.7-1.9 67.4-22.5 0.6 1.9zm67.5-22.6l-0.7-1.9 37.8-13.1 0.6 1.9zm37.8-13.2l-0.8-1.9 26.8-11.7 0.8 1.8zm26.8-12.2l-1.2-1.6 17.3-12.9 1.2 1.6zm17.4-13l-1.5-1.3 8.7-9.8 1.5 1.3zm8.2-9.4l-1.6-1.3 6.8-8.4 1.5 1.2zm6.9-8.8l-1.9-0.7 10-26.7 1.9 0.7zm9-26.2v-2h0.4v2zm1.4-0.7l-1.9-0.5 4.7-17.3 1.9 0.5zm4.4-16.8l-1.4-1.4 6.4-6.5 1.5 1.5zm5.5-6.5l-0.5-1.9 19-5.6 0.6 1.9zm18.9-5.5l-0.4-2 10.6-1.7 0.3 1.9zm11-1.9l-0.4-1.9 21.3-3.8 0.3 1.9zm21.1-3.8l-0.1-2 51-4.5 0.2 2zm51-4.5v-2l25.7-0.8 0.1 2zm24.4-1.3l-0.1-2 147.5-7.3 0.1 2zm147.5-7.3v-2l66.5-1.6 0.1 2zm64.1-1.9l-0.1-2 143-2.8v2zm140.9-3.2v-2h86.2v2zm85.1-0.5l0.2-2 70.2 5.3-0.1 2zm70.1 5.3l0.3-2 65.7 10.7-0.3 1.9zm65.6 10.7l0.5-1.9 60.6 15.6-0.5 2zm60.1 15.3l0.6-1.9 17.1 5-0.5 1.9zm17.1 5l0.5-2 43.7 13.4-0.6 1.9zm41.5 12.6l0.6-1.9 80.2 26.4-0.6 1.9zm80.2 26.5l0.6-1.9 27.6 7.5-0.5 1.9zm27.6 7.5l0.6-2 23.3 6.6-0.6 2zm23.3 6.5l0.5-1.9 22.8 6-0.5 1.9zm22.9 6l0.4-1.9 15.1 3.8-0.5 1.9zm16 4.1l0.5-1.9 111.2 27.1-0.5 1.9zm111.4 26.8l0.4-1.9 139.5 32.1-0.5 2zm139.5 30.2l0.4 2-148.2 34.8-0.5-1.9zm-146.3 34.2l0.5 2-142.7 35.1-0.5-2zm-140.6 34.9l0.5 1.9-69.3 20.2-0.6-1.9zm-69.2 20.2l0.6 1.9-53.4 17.4-0.7-1.9zm-53.1 17.4l0.6 1.9-55.7 17.6-0.6-2zm-54.6 17.2l0.5 1.9-91.3 23.6-0.5-2zm-91.2 23.6l0.3 1.9-48 6.3-0.3-2zm-47.9 6.3l0.2 2-23.4 2.2-0.2-2zm-72.9 6l-0.1-2 50.2-1.5 0.1 2zm-226.2-2.6l0.1-2 54.1 2.5v2zm54.1 2.5v-2l174 0.4v2zm-577.8-157l0.6-1.9 70.4 22.3-0.6 1.9zm70.3 22.2l0.7-1.9 39.3 14.1-0.7 1.8zm39.4 14l0.9-1.8 24.2 11.9-0.9 1.7zm24 11.8l1.2-1.6 16.8 13.3-1.2 1.6zm16.7 13.3l1.6-1.3 11.8 13.6-1.5 1.3zm11 13.1l1.7-1 5 8.4-1.8 1zm4.9 8.2l1.9-0.7 4.4 11.4-1.9 0.7zm4.4 11.4l1.9-0.6 3.6 11.1-1.9 0.6zm3.5 11.1l2-0.5 2.9 10.4-2 0.6zm2.9 10.4l1.9-0.6 2 6.2-2 0.6zm2.2 6.6l1.5-1.4 3 3.3-1.5 1.4zm3.2 3.5l1.4-1.5 4.5 4.1-1.3 1.5zm5.3 4.3l0.6-1.9 7.2 2.4-0.7 1.9zm7.1 2.3l0.5-1.9 12 3.4-0.6 2zm12 3.4l0.3-1.9 8.3 1.3-0.4 2zm7.7 1.1l0.3-2 43.5 5.7-0.3 2zm42.4 5.6l0.1-2 112.1 7.2-0.1 2zm112 7.1l0.1-2 93.3 4-0.1 2zm93.3 3.9v-2l62.5 0.9v2zm451.1-223.6v-2l32.6 0.2v2zm-0.5-2h2l-0.3 142.4h-2zm0.8 143.5v-2l33.1-0.3v2zm291.7-123.9h2l0.5 102.3h-2zm-453.5 123.9v-2h48.4v2zm47.4-1h2l0.1 83.4h-2zm-47.3-140v-2l48.3-0.3v2zm49.4-1.3h-2v-83.9h2zm-277.4 41.2v-2l50.2 0.3v2zm0.1 60.2v-2h50v2zm-275.7-70.5v-2l82.8 0.4v2zm-0.9-1.2h2l0.2 80.2h-2zm1.2 81.2v-2l80.5-0.3v2zm81.2 0.1l-0.5-1.9 32.4-8.5 0.5 1.9zm-0.6-81l0.6-2 32.2 9.7-0.6 1.9zm31.5 8.7h2l0.7 63.6h-2zm-32.5-8.6h2l0.5 80h-2zm-48.4 40.7v-2l49.6 0.5-0.1 2zm-0.6-40.5h2v79h-2zm32.8-105.7h2l0.1 35.6h-2zm1.2 36.5l-0.1-2 32.3-0.3v2zm33.3-1.4h-2l-0.1-37 2-0.1zm-277.5 41v-2h145.4v2zm-0.8-1.2h2l-0.2 141.5h-2zm0.8 142.5v-2h146.1v2zm504.5-70.9v-2h177.5v2zm177.4 0v-2l162.8 0.4v2z"/>
</svg>