<svg version="1.2" xmlns="http://www.w3.org/2000/svg" viewBox="0 370 1920 360">

	<path id="Background" style="fill: #6d92ab" d="m1068.6 421.6v-2l142.1 1.1v2zm141.8 1l0.7-1.9 37.2 14.1-0.7 1.8zm36.9 13.8l1.5-1.3 13 14-1.5 1.4zm11.3 13l1.6-1.2 11.8 15.3-1.5 1.2zm11.2 14.4l1.8-1 8.7 14.7-1.7 1.1zm-5.9-7.8l1.7-1.1 14.6 22.3-1.7 1.1zm14.2 21.3l1.8-0.8 6 14.1-1.8 0.8zm5.4 12.8l1.9-0.7 5.1 13.6-1.9 0.7zm5.1 11.7l2-0.3 3.1 19-1.9 0.3zm2.6 16.5l1.9-0.5 1.5 5.9-1.9 0.5zm1.5 5.7h2l0.8 33.3-2 0.1zm1.1 31.8l1.9 0.5-6.1 27.6-2-0.5zm-6 27.5l1.8 0.8-10.5 23.7-1.9-0.8zm-9.7 22.9l1.7 1-9.9 16.1-1.7-1zm-8.8 14.5l1.6 1.3-12.7 15.4-1.6-1.3zm-11.9 14.8l1.3 1.5-11.8 10.8-1.4-1.5zm-10.9 10.7l1 1.7-12.1 7.2-1.1-1.7zm-11.2 6.9l0.6 1.9-17.4 5.3-0.6-1.9zm-15.7 5.2l0.3 2-12 1.6-0.3-2zm-9 1.2v2l-76.6 0.4v-2zm-30.3-2.1v2l-198.7-0.2v-2zm-198.9 31.5v-2l193.4 0.8v2zm5.2-30.2h2v29.5h-2zm8.1 0.2h2v29.2h-2zm7.8-0.8h2l0.2 30h-2zm8.1 0h2l0.1 29.8h-2zm8.4 0.2h2l-0.1 29.6h-2zm9.3 0h2l0.1 29.7h-2zm10-0.4h2l0.2 30.9h-2zm9 0.1h2l0.1 30.5h-2zm8.6 0.2h2v30.5h-2zm8.7-0.2h2l-0.5 30.4h-2zm-268.3-45.3v-2h10.4v2zm10.3-1.7l2 0.1-0.2 6.3-2-0.1zm0.8 7.1l-0.1-2 5-0.5 0.1 2zm4.2-1.7l2-0.1 0.2 4.5-2 0.1zm22.4 1.2v-2l11.6 0.1v2zm10.1-1.6h2l0.3 18.7h-2zm1.3 18.1v-2l16.2 0.1v2zm13.7-1.4h2v25.2h-2zm1 26.2v-2l69.9-0.4v2zm68.3-2.4h2l-0.1 5h-2zm0.6 6.1v-2h10.3v2zm9-0.6v-2l27.4 0.3v2zm27.2-1.1h-2v-28.5h2zm-1.7-26.5v-2l4.8-0.1v2zm4.1-1.5h2v13.8h-2zm0.8 13.9v-2l52.8-0.6v2zm52.9-1.7h-2v-48h2zm-18.6-45.9v-2l18.4 0.2-0.1 2zm2.4-1.1h-2v-13.4h2zm-192.1 23.6l0.1-2 21.4 0.5v2zm22.5-0.5l-2 0.1-0.1-5.5h2zm-34.6-44.4h-2l1-59h2zm0.7-58.2l-1.3-1.5 19.9-16.9 1.3 1.6zm19.3-16.6v-2l150.6 0.2v2zm149.9 0l1.3-1.5 4.3 3.6-1.2 1.5zm3.9 2.8h2l1.3 45.4-2 0.1zm-4.4 127.8h-2l0.3-48.2h2zm-0.8-69.4l-2-0.1 0.5-9.9 2 0.1zm0.1-9.3v-2h7.6v2zm6.1-3.6v-2h7.4v2zm22.8-0.2l-0.1-2 9.5-0.3v2zm7.6-2.5h-2l-0.5-24.2 2-0.1zm-0.7-24.9l-1.5 1.4-6.2-6.9 1.5-1.4zm-5.8-6.2h-2l-0.3-22.4 2-0.1zm-0.5-23.1l-1.5 1.4-58.7-60 1.5-1.4zm-58.7-59.5h-2l0.3-36.5h2zm42.2-11.9v-2h87.8v2zm-0.4-28.2v-2h88v2zm77.4-1.5h2v29.3h-2zm-10.3 0h2v29h-2zm-9.7 0.2h2v28.7h-2zm-11.5 0h2v28.7h-2zm-11.2-0.1h2v28.9h-2zm-11.6 0h2v29.1h-2zm-12 0.4h2v28.8h-2zm-11.3-0.2h2v29.1h-2zm86.2 0h2v28.5h-2zm-39 250.8v-2l186.1-0.3v2zm86.6-1h-2v-53.8h2zm0-85.3h-2l-1.7-136.4h2zm-447.3-138.2v-2l109.4 1.3v2zm110.4 0.3l-2-0.1 0.5-14.7h2zm-0.6-13.7v-2l160.7 1.7v2zm-1.8 11.6h2v37h-2zm-0.9 54.6l1.3-1.4 5.1 4.6-1.4 1.5zm5.1 3.8l2 0.1-1.6 44.6-2-0.1zm-0.7 45.7v-2h21.9v2zm54.2-116.4h2v96.3h-2z"/>
	<path id="Forma 1" style="fill: #6d92ab" d="m106.9 383.5l0.3 2-12.2 2.1-0.3-2zm-12.6 2.3l1.2 1.6-6.9 5-1.2-1.6zm-7.1 5.2l1.5 1.3-6.9 8-1.5-1.3zm-7.1 8.4l1.9 0.4-3.3 13.9-2-0.5zm-3.4 13.9l2 0.3-2.9 25.3-2-0.2zm-2.9 25.4l2 0.2-3.6 37.3-2-0.2zm-3.6 36.9l2 0.1-2.1 37.4-1.9-0.2zm-2.5 36.4h2l0.2 59.3h-2zm-0.2 58.6l2-0.1 2.3 34.6-2 0.1zm2.3 34.6l2-0.1 2.5 29.8-2 0.2zm2.5 29.9l2-0.3 4.5 33.7-1.9 0.3zm4.6 32.8l1.9-0.3 1.4 9.2-1.9 0.3zm1.5 9.5l1.7-1 5.3 8.5-1.7 1zm5.2 8.4l1.5-1.3 4.1 4.6-1.5 1.3zm4.3 4.8l1-1.7 6.7 4.3-1 1.6zm6.9 4.4l0.6-1.9 8.3 2.5-0.6 1.9zm7.2 2.1v-2l305.2 7.6v2zm303.4 7.4v-2l299.4 6-0.1 2zm300.3 5.5l-1.8-0.9 1.5-2.7 1.7 1zm1.6-3.2h-2v-2.8h2zm-1.2-1.3v-2l260 1.1v2zm258 1v-2l58.8-0.7v2zm58.8-0.5v-2l103.1-1.1v2zm101.8-0.7v-2l77-1v2zm76.3-1.1l-0.1-2 99.9-3.2 0.1 2zm97.6-3l-0.1-2 154.4-10.4 0.2 2zm153.8-10.4l-0.3-2 128.7-18.2 0.2 2zm127.4-18.2l-0.4-1.9 67-14.5 0.5 2zm66.9-14.4l-0.6-1.9 79.1-24.3 0.6 1.9zm79.2-24.4l-0.8-1.9 49.3-20.8 0.7 1.9zm47.4-20.2l-0.9-1.8 24-13.7 1 1.7zm24-13.8l-1.1-1.6 21.3-15.2 1.2 1.6zm20.4-14.6l-1.4-1.4 14.8-15.3 1.5 1.4zm15-15.7l-1.8-0.8 6.7-15.5 1.8 0.8zm6.8-15.9l-2-0.1 1.4-16.1 2 0.2zm1.4-16.3l-2 0.3-2.3-13.6 2-0.3zm-2.4-13.9l-1.8 0.9-6.2-13.1 1.8-0.9zm-6.3-13.3l-1.5 1.4-11.3-12.4 1.5-1.3zm-11.3-12.2l-1.1 1.7-28.6-20.5 1.1-1.6zm-28.3-20.6l-1 1.8-35.1-18.4 0.9-1.7zm-35.2-18.4l-0.7 1.8-46.8-17.6 0.7-1.9zm-46.1-18l-0.6 1.9-69.3-19.9 0.5-2zm-69.4-19.9l-0.4 1.9-49.5-10.7 0.5-2zm-48.6-10.4l-0.4 1.9-60.7-10.7 0.4-2zm-59.2-10.9l-0.3 1.9-60.5-6.8 0.2-2zm-60.5-7.1l-0.2 2-50.5-4.8 0.2-2zm-48.9-4.7l-0.2 2-116.1-8.3 0.1-2zm-115.3-8.5v2l-107.7-2.3v-2zm-104.8-1.9v2l-209.2-3.6v-2zm-207.7-3.3v2l-216.8-0.7v-2zm-290 2.7v-2l76.9-1.8 0.1 2zm0.6-0.5l-2-0.2 0.4-3.7 2 0.2zm-0.2-4.7l-1 1.7-3.4-2.1 1.1-1.7zm-3.9-2.3v2l-110.5 2.5v-2zm-109.6 2.1v2l-324.1 8v-2zm-488.5 13.4l-0.1-2 183.1-4v2zm8.7 9.3l0.1 2-9.5 0.3-0.1-2zm-9.3 0.2l0.8 1.8-7.1 3.2-0.8-1.8zm-7.3 3.4l1.5 1.4-6.1 6.4-1.5-1.4zm-5.9 6.3l2 0.5-3.5 14.7-2-0.4zm-3.5 14.2l2 0.2-2.2 29-2-0.2zm-1.8 28.2l2 0.1-0.2 12.2-2-0.1zm-0.2 12.5l1.9-0.4 3.7 15-2 0.5zm3.9 13.6h2l-0.6 122.4h-2zm-0.7 121.3l2-0.1 0.4 13.4-2 0.1zm0.6 12.7l2 0.5-4.4 15.7-1.9-0.6zm-4.5 15.2l2-0.2 1.9 30.3-1.9 0.2zm1.9 30.3l2-0.2 2.1 16.3-2 0.3zm2.1 16.5l1.9-0.6 2.8 8.8-1.9 0.6zm3.1 9.2l1.3-1.5 4.6 4.1-1.3 1.5zm3.3 4.1l0.6-1.9 7.4 2.2-0.6 1.9zm7.4 2.3l0.1-2 11.3 1-0.1 2zm21.9-295l0.9 1.8-14.1 7.6-1-1.8zm-14.2 7l1.8 0.8-6.7 16.9-1.9-0.7zm-6.6 17.3h2v14.6h-2zm-0.5 11.6h2l-0.3 32.2-2-0.1zm-0.9 29.8h2l1.3 196.4h-2zm1.2 196.4l2-0.2 2 19-2 0.2zm2.1 19.2l1.9-0.6 4.4 12.9-1.9 0.7zm5 13.5l0.8-1.8 12.5 5.6-0.8 1.8zm12.5 6.6l0.1-2 19.4 0.4-0.1 2zm19.4 0.4l0.1-2 563.2 13.7-0.1 2zm-19.3-299.8l-0.1-2 583.1-14.5v2zm565.8-11.2v2l-345.8 8.2v-2zm-343.3 7.3l0.1 2-180.2 6-0.1-2zm-180.6 6.1l0.9 1.8-12.9 6.5-0.9-1.8zm-13.3 6.8l1.7 1.1-6.9 10.7-1.7-1.1zm-7 11.1l2 0.4-3.9 19-2-0.4zm-3.9 19l2 0.2-7.3 95.4-2-0.1zm-7.3 124.4l2-0.1 3.9 66.2-2 0.1zm3.9 66.4l2-0.3 6.4 45.6-2 0.3zm6.4 45.5l1.8-1 7.1 11.9-1.7 1zm7.5 12.3l1-1.7 10 6-1.1 1.7zm10.5 6.1v-2l542.6 15.1-0.1 2zm540.2 14.3v-2l363.6 0.8v2zm361.9 0.9v-2l88.1-1v2zm61.8-6.9l0.5-1.9 17.7 4.6-0.5 1.9zm23.9 5.5l0.2-2 16 1.8-0.2 2zm15 2.1l0.1-2 15.8 0.7-0.1 2zm15.8 0.7v-2h15v2zm15 0l-0.1-2 14.6-0.6 0.1 2zm14.7-0.5l-0.2-2 12.6-1.1 0.2 2zm12.7-1.2l-0.4-1.9 8.2-1.7 0.4 2zm7.2-1l-0.3-2 13-2.2 0.3 2zm13.1-2.3l-0.5-1.9 13.4-3.7 0.5 2zm10.4-2.7l-0.3-1.9 10-1.6 0.3 2zm9.3-0.9l-0.7-1.8 7.9-3.3 0.8 1.9zm-1109.7-174.3v2l-6.2 0.1v-2zm-6.5-0.1l0.9 1.8-5.8 2.6-0.8-1.8zm-5.5 2.2l1.2 1.6-4.8 3.4-1.1-1.7zm-4.8 3.1l1.5 1.4-3.9 4.1-1.5-1.4zm-2.5-0.8l1.9 0.1-0.3 4.3-2-0.1zm-0.8 4.3l1.8 0.9-2.5 4.5-1.7-0.9zm-2 3.5l1.9 0.7-1.4 4-1.9-0.7zm-1.4 3.7h2v4.8h-2zm-0.3 4.5l2-0.1 0.2 4.8-2 0.2zm0.7 7.5l1.6-1.1 2.9 4.3-1.7 1.1zm2.6 4.1l1.5-1.3 3 3.7-1.5 1.3zm2.5 2.7l1.5-1.3 3.4 3.6-1.5 1.4zm2.9 3.3l0.8-1.8 5 2.3-0.8 1.8zm4.2 1.9l0.6-1.9 5.1 1.6-0.6 1.9zm3.8 1.3v-2h7.9v2zm5.1-39.4v-2h3.4l-0.1 2zm0.4 39.4v-2h3.2v2zm1.2-41.1h2l-0.1 41.1h-2zm1.5 1.4l-2-0.2 5.2-72.4 2 0.2zm5.2-72.4l-2-0.2 3.2-33.1 2 0.2zm3.2-32.9l-1.9-0.7 4.6-11.4 1.8 0.8zm4-10.8l-0.7-1.9 11.7-4.9 0.7 1.9zm11.4-4.8l-0.1-2 47.7-1.6 0.1 2zm47.7-1.6v-2l88.6-2.3v2zm88.7-2.3l-0.1-2 81.2-2.6v2zm81.2-2.6v-2l42.8-1 0.1 2zm40.5-1.3v-2l10.6-0.2v2zm9-1.1h2l-0.2 88h-2zm0 85.3h2l-0.2 5.9-2-0.1zm0.6 6.8v-2l12.7-0.3 0.1 2zm-0.6-2h2l-0.4 35.6-2-0.1zm2 34.4h2l-0.3 50h-2zm3 0.8h2l-0.2 49h-2zm-6.8 1.5h2l0.2 47.3-2 0.1zm2 48.6h2l0.6 38.3h-2zm-292.8-6.6h2l1.2 26.9-2 0.1zm1 26.2l2-0.2 6.5 77.9-2 0.1zm6.2 77l1.9-0.7 2.9 7.8-1.9 0.7zm3 7.9l1.7-1.1 4.3 6.2-1.6 1.1zm4.7 6.6l1-1.8 6.2 3.5-1 1.7zm6.5 3.6l0.5-2 10.2 2.3-0.5 2zm9.5 2.3v-2l22.8 0.1v2zm20.7-0.3v-2l109.7 3.5-0.1 2zm109.6 3.4l0.1-2 83.3 3.1-0.1 2zm83.3 3v-2l48.9 1.1v2zm49.9 0.1h-2l0.8-86.5h2zm-98.5-66.8v-2l63.2-0.1v2zm90.8-7.7l2-0.1 0.4 8.3-2 0.1zm0.5 8.1l1.9 0.3-1.1 7.2-1.9-0.3zm-1.1 6.8l1.9 0.8-3.7 9-1.8-0.7zm-3.5 8.6l1.5 1.4-5.8 6.1-1.4-1.4zm-5.1 5.4l1.1 1.6-8.9 5.8-1.1-1.7zm-8 4.9l0.5 1.9-8.9 2.3-0.5-1.9zm-73.3 5.1v-2l65.4-0.5v2zm3.8-1.2h-2l0.3-31.1h2zm8.4-0.2h-2l-0.2-30.8h2zm7.8-0.1h-2v-31.2h2zm8.3 0.2h-2l-0.2-31.1h2zm9.3 0.2h-2l-0.2-31.3h2zm8.9 0h-2l-0.4-31.1h2zm8.9 0l-2 0.1-0.2-31.2h2zm4.8-31h2l0.4 31.1h-2zm0.9 0.5l1.8-0.9 13.4 27.4-1.8 0.9zm0.8 0l1-1.8 25.9 15-1 1.7zm1.3 0.3l0.1-2 28.9 1-0.1 2zm1.5-1.2h-2v-6.8h2zm-0.5-4.3v-2h28.7v2zm45.6-136.2h-2l1.1-52.3h2zm1.1-51.8l-1.8-0.9 2.2-4.5 1.8 0.9zm1.9-4.2l-1-1.7 5.8-3.6 1.1 1.7zm5.6-3.4l-0.6-1.9 4.9-1.7 0.6 1.9zm4.2-2.3v-2l198.4 0.2v2zm196.9-1.5h2l0.6 133.8h-2zm0.5 133.5l1.4-1.4 25.3 26.6-1.5 1.4zm26.1 26.9v-2l60.2-0.2v2zm58-5.4l2-0.1 0.2 4.3-2 0.1zm0.8 1.5v-2h20v2zm17.1-1.2h2v3.6h-2zm1 4.6v-2h23.6v2zm22.1 0v-2l6-0.2 0.1 2zm1.9 35.5l-0.1-2 4.9-0.4 0.1 2zm0.4 5.2l-2 0.1-0.2-7 2-0.1zm-24-0.5v-2l24.1 0.2v2zm0-1.7l2-0.1 0.1 5h-2zm-23.9 6.5v-2l25.5-0.2v2zm1.4-0.8l-2-0.1 0.2-6 2 0.1zm-0.8-6.7v2l-56.6 0.3v-2zm-57.4 0.7l1.5 1.4-23.8 24.4-1.4-1.4zm-245.2-16.8l-0.1-2 12.9-0.6 0.1 2zm11.8-1.5h2l0.3 54.4h-2zm0.4 54.8l1.8-0.9 2.7 5.5-1.8 0.9zm3.1 5.8l1.1-1.6 5.2 3.6-1.1 1.6zm5.2 3.6l1.2-1.7 2.7 1.9-1.1 1.7zm3.3 2.1v-2h199.1v2zm200-1h-2l-0.5-22.5h2zm456.5 30.4v-2l47.8-0.2v2zm46.3-6.3l2 0.1-0.1 4.6h-2zm0.2 1.6v-2h22.9v2zm23.9-1h-2v-10.3h2zm-1-9.4v-2l24 0.1v2zm22.9-0.8l2-0.1 0.2 10.3h-2zm0.7 10.2v-2h9.1v2zm9.5 0l-0.5-1.9 19.5-5.7 0.6 2zm19.8-5.8l-1-1.8 13.9-7.8 1 1.8zm13.9-7.8l-1.1-1.7 11.4-7.6 1.1 1.7zm11.2-7.5l-0.8-1.8 13.1-5.7 0.8 1.8zm12.8-5.6l-0.3-2 12.2-2.1 0.3 2zm12.1-2.1l-0.1-2 22.5-1.7 0.1 2zm21.5-1.6l-0.2-2 31.6-2.4 0.2 2zm31.5-2.3l-0.1-2 29-2.2 0.2 2zm29.2-2.3l-0.4-1.9 11.8-2.2 0.3 2zm12.1-2.2l-0.9-1.8 12.5-5.9 0.8 1.8zm12.7-6.1l-1.2-1.6 10-7.5 1.2 1.6zm9.5-7.1l-1.5-1.3 11-12.1 1.5 1.3zm11-12.3l-1.7-1 6.8-12.2 1.7 0.9zm6.9-12.4l-1.9-0.6 5.4-15.4 1.9 0.7zm5.5-14.4l-1.9-0.4 3.3-15 2 0.5zm3.7-14.2l-2-0.3 3.3-18.8 2 0.3zm3.4-18.9l-2-0.2 0.6-8.5 2 0.2zm0.1-8l-1.2-1.6 3.9-3.2 1.3 1.6zm2.6-3.3v-2l85.7 0.5v2zm0.4-25v-2l85.3 0.8v2zm48-0.2h2l0.1 24-2 0.1zm7.2-0.2h2v24.5h-2zm8.2-0.1h1.9l0.2 24.4h-2zm7 0.2h2l0.2 24.3h-2zm7.7-0.7l2-0.1 0.4 25.8h-2zm5.6 0.4h2v25.1h-2zm-313.8 157.9l2 0.1-0.2 9.9h-2zm0.9 8.9v2l-24.4-0.5 0.1-2zm-24.7-8.5l2-0.1 0.2 9.8h-2zm-22.2 1.3l2-0.1 0.1 8.9h-2zm1.3 10.1v-2l22.4-0.3v2zm-1.4-0.2l-0.1-2 6.5-0.2 0.1 2zm277-171.1l-0.8 1.8-4-1.8 0.8-1.8zm-2.6-0.8l-1.6 1.2-2.7-3.5 1.5-1.2zm-2.5-2.4l-2 0.1-0.4-15.4 2-0.1zm-0.7-15.6l-1.9 0.5-5.5-24 2-0.5zm-5.1-22.8l-1.8 0.7-6.8-17.9 1.8-0.7zm-6.8-18.2l-1.7 1.1-8.1-13.6 1.7-1zm-8.2-13.8l-1.5 1.3-7.6-8.3 1.5-1.3zm-7.7-8.4l-1.3 1.5-10.5-8.3 1.2-1.5zm-10.8-8.5l-0.8 1.8-11.6-4.9 0.8-1.8zm-11.8-5l-0.4 2-11.2-2.6 0.5-2zm-11.4-2.5l-0.1 1.9-22.8-1.6 0.2-2zm-21.5-1.8l-0.1 2-39.4-2.4 0.1-2zm-39.4-2.4l-0.1 2-23.4-1.5 0.1-2zm-23.2-1.5l-0.5 1.9-10-2.2 0.4-2zm-9.9-2.2l-0.7 1.9-8.4-3.5 0.8-1.9zm-8.2-3.4l-1 1.7-10.5-5.7 0.9-1.8zm-9.5-5.1l-1.1 1.6-12.7-8.2 1.1-1.7zm-12.6-8.2l-1 1.7-10.5-5.8 1-1.7zm-10.6-6l-0.7 1.9-9.9-3.3 0.6-1.9zm-10.1-3.3l-0.3 2-9.2-1.1 0.2-2zm-9.2-1.1l-0.3 1.9-4.4-0.6 0.3-1.9zm-8.7 1.1v-2l7.1 0.2-0.1 2zm-1.4-10.7h2l-0.1 17.9h-2zm1.8 16.4l-0.1 2-24-0.2v-2zm-22.7 1h-2l0.1-17.2h2zm-1.8-16.2v-2l24.6 0.2v2zm-20.1-1.3v-2h20.4v2zm-0.8-2.1h2l0.1 11.4h-2zm1.1 12.5v-2l20-0.1v2zm-50.9-3.8v-2l51.4-0.4v2zm0.2-1.6l-0.4-1.9 23.9-5.3 0.5 2zm23.8-5.3l-0.2-2 31-3.6 0.2 2zm30.9-3.7v-2l31.3 0.8-0.1 2zm29.5 0.3l0.3-2 25.9 3.5-0.3 2zm25.2 3.5l0.4-2 26.3 4.6-0.4 2zm37.6 6.2l-0.6 1.9-15.7-4.7 0.6-1.9zm-1.6 1.6l0.1-2 57.2 2.8-0.1 2zm56.3 2.4l0.2-2 46.3 4.5-0.2 2zm43.2 3.9l0.2-2 38.4 3.9-0.2 2zm38.4 3.9l0.4-1.9 35.5 7.6-0.4 2zm34.2 7.8l0.7-1.9 22.7 7.8-0.6 1.9zm22.6 7.8l1-1.7 18.3 11.2-1 1.7zm18.1 11.1l1.3-1.5 15.4 13-1.3 1.6zm14 12l1.6-1.3 10.6 13.1-1.5 1.2zm10.5 12.9l1.8-0.9 6.9 13.5-1.8 0.9zm6.9 13.3l1.8-0.7 7.5 18.3-1.8 0.7zm7.4 18.2l1.9-0.5 4.3 16.8-1.9 0.5zm3.9 15.7l1.9-0.4 3.8 18.1-2 0.4zm3.7 18l2-0.2 1.1 10.3-1.9 0.2zm-260 172.1l-0.2-2 56-3.7 0.2 2zm56-3.8l-0.1-2 53.4-3.1 0.1 2zm53.5-3.2l-0.3-2 40.9-5.4 0.3 2zm41-5.5l-0.5-1.9 30-8 0.6 1.9zm29.7-8l-0.8-1.9 26.3-11.4 0.8 1.8zm26.5-11.6l-1.1-1.6 17.9-13.1 1.2 1.6zm18.1-13.3l-1.5-1.3 13.8-15.7 1.5 1.3zm13.9-15.8l-1.8-0.9 10-18.6 1.7 0.9zm9.6-18.1l-1.8-0.8 8.5-18.8 1.8 0.8zm8.6-18.9l-1.9-0.6 4.8-14.8 1.9 0.6zm4.9-14.9l-2-0.4 4.3-25.3 2 0.3zm-844.6-195.6v-2l462.1 0.6v2zm381.7 11.2v-2l106.6 0.1v2z"/>
</svg>