<svg version="1.2" xmlns="http://www.w3.org/2000/svg" viewBox="140 450 2450 380" height="300" width="900">
	<path id="Forma 2" style="fill: #6d92ab" d="m195.5 385.5v-3l655.4-9.8v3z"/>
	<path id="Forma 3" style="fill: #6d92ab" d="m197.1 382.2l0.2 3-18.4 1.1-0.2-3z"/>
	<path id="Forma 4" style="fill: #6d92ab" d="m179.4 382.8l1.9 2.3-2 1.6-1.9-2.3z"/>
	<path id="Forma 5" style="fill: #6d92ab" d="m178.4 383.2l1.8 2.4-4.6 3.7-1.9-2.4z"/>
	<path id="Forma 6" style="fill: #6d92ab" d="m176.3 385l1.7 2.4-5.8 4.3-1.7-2.4z"/>
	<path id="Forma 7" style="fill: #6d92ab" d="m172.2 387.3l2.3 1.9-3.6 4.5-2.4-1.8z"/>
	<path id="Forma 8" style="fill: #6d92ab" d="m170.8 389.2l2.3 1.9-4.9 5.7-2.3-1.9z"/>
	<path id="Forma 9" style="fill: #6d92ab" d="m166.8 393.1l2.7 1.4-3.1 5.9-2.6-1.4z"/>
	<path id="Forma 10" style="fill: #6d92ab" d="m163.6 397.4l2.9 0.7-1.3 6.2-2.9-0.7z"/>
	<path id="Forma 11" style="fill: #6d92ab" d="m162.5 402.2l3 0.4-2.4 14.9-3-0.5z"/>
	<path id="Forma 12" style="fill: #6d92ab" d="m160.5 415.7l3 0.3-4.6 50.3-3-0.3z"/>
	<path id="Forma 13" style="fill: #6d92ab" d="m156 465.1l2.9 0.3-1.4 14.6-3-0.3z"/>
	<path id="Forma 14" style="fill: #6d92ab" d="m154.6 479.2h3v85.6h-3z"/>
	<path id="Forma 15" style="fill: #6d92ab" d="m154.1 563.8l3-0.1 1.1 29-3 0.1z"/>
	<path id="Forma 16" style="fill: #6d92ab" d="m155.1 592.1l3-0.2 1.4 21.1-3 0.2z"/>
	<path id="Forma 17" style="fill: #6d92ab" d="m156.4 612.7l3-0.2 1.9 21.5-3 0.2z"/>
	<path id="Forma 18" style="fill: #6d92ab" d="m158.3 633.7l3-0.3 2.5 27-3 0.3z"/>
	<path id="Forma 19" style="fill: #6d92ab" d="m161 660.5l2.9-0.7 2.8 11.4-3 0.7z"/>
	<path id="Forma 20" style="fill: #6d92ab" d="m163.8 672l2.4-1.9 4.9 6.5-2.4 1.8z"/>
	<path id="Forma 21" style="fill: #6d92ab" d="m168.6 678.1l1.8-2.4 4.6 3.3-1.8 2.4z"/>
	<path id="Forma 22" style="fill: #6d92ab" d="m172.8 681.1l1.3-2.8 6.5 3.1-1.3 2.7z"/>
	<path id="Forma 23" style="fill: #6d92ab" d="m178.9 683.9l0.7-3 7.6 1.8-0.7 3z"/>
	<path id="Forma 24" style="fill: #6d92ab" d="m185.5 685.5l0.2-3 9.6 0.5-0.1 3z"/>
	<path id="Forma 25" style="fill: #6d92ab" d="m193.6 686.2v-3l13.1 0.1-0.1 3z"/>
	<path id="Forma 28" style="fill: #6d92ab" d="m1076.9 697.1l-0.1-3 131.7-5.3 0.1 3z"/>
	<path id="Forma 36" style="fill: #6d92ab" d="m204.1 685.6l0.1-3 591.8 10.2v3z"/>
	<path id="Forma 37" style="fill: #6d92ab" d="m795.6 695.8v-3l111.9 1.8-0.1 3z"/>
	<path id="Forma 38" style="fill: #6d92ab" d="m906.7 698v-3l173-1.1v3z"/>
	<path id="Forma 39" style="fill: #6d92ab" d="m850.1 375.1v-3l203.3-2.2v3z"/>
	<path id="Forma 40" style="fill: #6d92ab" d="m1053.3 372.9l0.2-3 104.6 4.9-0.2 3z"/>
	<path id="Forma 41" style="fill: #6d92ab" d="m1157.9 377.8l0.2-3 75.9 6.9-0.3 3z"/>
	<path id="Forma 42" style="fill: #6d92ab" d="m1232.5 384.4l0.6-2.9 90.8 17.7-0.5 2.9z"/>
	<path id="Forma 43" style="fill: #6d92ab" d="m1323.2 402.1l0.9-2.9 116.4 34.2-0.9 2.9z"/>
	<path id="Forma 44" style="fill: #6d92ab" d="m1439.6 436.3l1-2.8 110.7 37.4-1 2.8z"/>
	<path id="Forma 45" style="fill: #6d92ab" d="m1549.3 447.8l1.1-2.7 216.1 87.6-1.1 2.8z"/>
	<path id="Forma 46" style="fill: #6d92ab" d="m1550.2 624.1l-1.2-2.8 217.4-88.1 1.1 2.7z"/>
	<path id="Forma 47" style="fill: #6d92ab" d="m1548.1 445h3v179h-3z"/>
	<path id="Forma 48" style="fill: #6d92ab" d="m1662.3 492.2h3v85h-3z"/>
	<path id="Forma 49" style="fill: #6d92ab" d="m1435.1 433.2h3v201.8h-3z"/>
	<path id="Forma 50" style="fill: #6d92ab" d="m1223.2 382.3h3v304h-3z"/>
	<path id="Forma 51" style="fill: #6d92ab" d="m1436.6 475.5l0.8-2.9 111.5 28.3-0.8 2.9z"/>
	<path id="Forma 52" style="fill: #6d92ab" d="m1437.2 596.6l-0.7-3 112.4-28.3 0.7 2.9z"/>
	<path id="Forma 53" style="fill: #6d92ab" d="m1549.6 568.2l-0.7-2.9 115.4-27.5 0.7 2.9z"/>
	<path id="Forma 54" style="fill: #6d92ab" d="m1549.1 503.7l0.6-3 114.9 25.9-0.7 3z"/>
	<path id="Forma 55" style="fill: #6d92ab" d="m1467.4 482.2h3v104.7h-3z"/>
	<path id="Forma 56" style="fill: #6d92ab" d="m200.1 383.1l0.7 2.9-12.8 2.9-0.7-2.9z"/>
	<path id="Forma 57" style="fill: #6d92ab" d="m186.6 386.4l2.1 2.2-5.7 5.2-2.1-2.2z"/>
	<path id="Forma 58" style="fill: #6d92ab" d="m180.7 391.9l2.5 1.6-4.9 7.7-2.5-1.6z"/>
	<path id="Forma 59" style="fill: #6d92ab" d="m175.6 400.2l3 0.4-1.4 11.9-3-0.3z"/>
	<path id="Forma 60" style="fill: #6d92ab" d="m174.1 411.9l2.9 0.2-6.7 76.2-3-0.3z"/>
	<path id="Forma 61" style="fill: #6d92ab" d="m167.2 487.5h3l-0.4 87.2h-3z"/>
	<path id="Forma 62" style="fill: #6d92ab" d="m166.7 574.4l3-0.2 8 92.3-2.9 0.3z"/>
	<path id="Forma 63" style="fill: #6d92ab" d="m174.4 666.6l2.5-1.6 3.4 5.5-2.5 1.6z"/>
	<path id="Forma 64" style="fill: #6d92ab" d="m177.4 671.5l2.5-1.6 3.3 5-2.5 1.6z"/>
	<path id="Forma 65" style="fill: #6d92ab" d="m180.4 676.4l2-2.3 3.6 3.1-2 2.3z"/>
	<path id="Forma 66" style="fill: #6d92ab" d="m184 679.5l1.3-2.7 11.6 5.8-1.3 2.7z"/>
	<path id="Forma 67" style="fill: #6d92ab" d="m331 465.3v-3h146.5v3z"/>
	<path id="Forma 68" style="fill: #6d92ab" d="m329 462.1h3v145.1h-3z"/>
	<path id="Forma 69" style="fill: #6d92ab" d="m329.7 608.3v-3h147.8v3z"/>
	<path id="Forma 70" style="fill: #6d92ab" d="m476.2 397.7h3v275.3h-3z"/>
	<path id="Forma 71" style="fill: #6d92ab" d="m477.5 399.7l-0.6-2.9 20.6-3.9 0.6 2.9z"/>
	<path id="Forma 72" style="fill: #6d92ab" d="m498 395.8l-0.3-3 32.9-3 0.3 3z"/>
	<path id="Forma 73" style="fill: #6d92ab" d="m529.7 392.2l-0.1-3 258.2-11.1 0.1 2.9z"/>
	<path id="Forma 74" style="fill: #6d92ab" d="m785.7 381.3l-0.1-3 147.3-3.3v3z"/>
	<path id="Forma 75" style="fill: #6d92ab" d="m932.9 378v-3h97.6v3z"/>
	<path id="Forma 76" style="fill: #6d92ab" d="m1030.4 378l0.3-3 72.2 6.7-0.3 3z"/>
	<path id="Forma 77" style="fill: #6d92ab" d="m1102.5 384.7l0.5-3 54.4 9.5-0.5 2.9z"/>
	<path id="Forma 78" style="fill: #6d92ab" d="m1156.7 394.1l0.8-2.9 67.5 19-0.8 2.9z"/>
	<path id="Forma 79" style="fill: #6d92ab" d="m1223.9 412.5l0.9-2.9 110.5 35.5-1 2.8z"/>
	<path id="Forma 80" style="fill: #6d92ab" d="m1334.4 447.9l0.8-2.9 74.8 21.5-0.9 2.9z"/>
	<path id="Forma 81" style="fill: #6d92ab" d="m1409.2 469.4l0.6-2.9 30.4 6.4-0.6 2.9z"/>
	<path id="Forma 82" style="fill: #6d92ab" d="m1435.1 593.4l0.7 2.9-64.9 16.5-0.8-2.9z"/>
	<path id="Forma 83" style="fill: #6d92ab" d="m1370 609.9l0.9 2.8-63.8 20.4-0.9-2.9z"/>
	<path id="Forma 84" style="fill: #6d92ab" d="m1306.2 630.2l0.9 2.9-48 15.1-0.9-2.9z"/>
	<path id="Forma 85" style="fill: #6d92ab" d="m1258.2 645.3l0.9 2.9-35.4 11.1-0.9-2.8z"/>
	<path id="Forma 86" style="fill: #6d92ab" d="m477.9 673.6l0.3-3 63 6.2-0.3 2.9z"/>
	<path id="Forma 87" style="fill: #6d92ab" d="m541 679.7l0.2-2.9 70.5 4.7-0.2 3z"/>
	<path id="Forma 88" style="fill: #6d92ab" d="m611.6 684.5l0.1-3 73.6 3.1-0.1 3z"/>
	<path id="Forma 89" style="fill: #6d92ab" d="m685.2 687.6l0.1-3 75.6 3-0.1 3z"/>
	<path id="Forma 90" style="fill: #6d92ab" d="m761.1 690.6v-3l87.3 1.1v3z"/>
	<path id="Forma 91" style="fill: #6d92ab" d="m846.7 691.5v-3l101.6 1.1-0.1 3z"/>
	<path id="Forma 92" style="fill: #6d92ab" d="m948.2 692.6v-3h99.1v3z"/>
	<path id="Forma 93" style="fill: #6d92ab" d="m1047.4 692.6l-0.3-3 89-10.1 0.3 3z"/>
	<path id="Forma 94" style="fill: #6d92ab" d="m1135.6 682.6l-0.7-2.9 89.8-23.3 0.8 2.9z"/>
	<path id="Forma 95" style="fill: #6d92ab" d="m574 388.7h3v37.3h-3z"/>
	<path id="Forma 96" style="fill: #6d92ab" d="m574.5 426.1v-3h34.5v3z"/>
	<path id="Forma 97" style="fill: #6d92ab" d="m610.5 426.2h-3v-38.1h3z"/>
	<path id="Forma 98" style="fill: #6d92ab" d="m509.9 494.9v-3h84v3z"/>
	<path id="Forma 99" style="fill: #6d92ab" d="m592.9 494.7l0.9-2.8 32.2 10.5-1 2.8z"/>
	<path id="Forma 100" style="fill: #6d92ab" d="m510 575.8v-3h85v3z"/>
	<path id="Forma 101" style="fill: #6d92ab" d="m594.6 575.8l-0.7-2.9 31.6-8.7 0.8 2.9z"/>
	<path id="Forma 102" style="fill: #6d92ab" d="m626.8 566.6h-3v-64.4h3z"/>
	<path id="Forma 103" style="fill: #6d92ab" d="m508.5 492.2h3v83.6h-3z"/>
	<path id="Forma 104" style="fill: #6d92ab" d="m541.3 493.2h3v81.8h-3z"/>
	<path id="Forma 105" style="fill: #6d92ab" d="m590.4 493.1h3v81h-3z"/>
	<path id="Forma 106" style="fill: #6d92ab" d="m542.6 536.1v-3h49.7v3z"/>
	<path id="Forma 107" style="fill: #6d92ab" d="m785 378.9h3v310.5h-3z"/>
	<path id="Forma 108" style="fill: #6d92ab" d="m835.8 377.9h3v312.7h-3z"/>
	<path id="Forma 109" style="fill: #6d92ab" d="m786.5 505.9v-3h51.5v3z"/>
	<path id="Forma 110" style="fill: #6d92ab" d="m786.5 565.6v-3h50.5v3z"/>
	<path id="Forma 111" style="fill: #6d92ab" d="m837.3 535.9v-3h339.5v3z"/>
	<path id="Forma 112" style="fill: #6d92ab" d="m1012.2 376.2h3l1 314.4h-3z"/>
	<path id="Forma 113" style="fill: #6d92ab" d="m1014.1 466.1v-3h49.9v3z"/>
	<path id="Forma 114" style="fill: #6d92ab" d="m1065.1 464.3h-3v-84.5h3z"/>
	<path id="Forma 115" style="fill: #6d92ab" d="m1207.5 406.6h3v255.7h-3z"/>
	<path id="Forma 116" style="fill: #6d92ab" d="m1176.1 465.1v-3h34.3v3z"/>
	<path id="Forma 117" style="fill: #6d92ab" d="m1173.6 462h3v145.7h-3z"/>
	<path id="Forma 118" style="fill: #6d92ab" d="m1175.1 608.3v-3h34.6v3z"/>
	<path id="Forma 119" style="fill: #6d92ab" d="m1013.7 607.3v-3h50.6v3z"/>
	<path id="Forma 120" style="fill: #6d92ab" d="m1062.8 604.5h3v83.8h-3z"/>
	<path id="Forma 29" style="fill: #6d92ab" d="m1208.2 692.2l-0.6-2.9 17.7-3.4 0.5 3z"/>
	<path id="Forma 30" style="fill: #6d92ab" d="m1225 689.1l-0.6-3 18.1-3.8 0.6 3z"/>
	<path id="Forma 31" style="fill: #6d92ab" d="m1242.4 685.4l-0.5-2.9 37.8-6.8 0.5 2.9z"/>
	<path id="Forma 32" style="fill: #6d92ab" d="m1278.2 678.9l-0.6-3 18.7-3.6 0.6 2.9z"/>
	<path id="Forma 33" style="fill: #6d92ab" d="m1295.8 675.4l-0.8-2.9 109.3-30.7 0.8 2.9z"/>
	<path id="Forma 34" style="fill: #6d92ab" d="m1405.1 644.7l-0.8-2.9 44.8-12.7 0.8 2.8z"/>
	<path id="Forma 35" style="fill: #6d92ab" d="m1450 631.9l-0.9-2.8 100.6-32.6 0.9 2.9z"/>
	<g id="Water Tank 20">
		<path id="Forma 121" style="fill: none" d="m476 465v140h-144v-140z"/>
	</g>
	<g id="Water tank 22">
		<path id="Forma 122" style="fill: none" d="m1468 483v103h-30v-103z"/>
		<path id="Forma 123" style="fill: none" d="m1442 476v7h-4v-7z"/>
		<path id="Forma 124" style="fill: none" d="m1445 477v6h-3v-6z"/>
		<path id="Forma 125" style="fill: none" d="m1446 477v6h-1v-6z"/>
		<path id="Forma 126" style="fill: none" d="m1449 478v5h-3v-5z"/>
		<path id="Forma 127" style="fill: none" d="m1453 479v4h-6v-4z"/>
		<path id="Forma 128" style="fill: none" d="m1450 478v1h-1v-1z"/>
		<path id="Forma 129" style="fill: none" d="m1457 480v3h-5v-3z"/>
		<path id="Forma 130" style="fill: none" d="m1461 481v2h-5v-2z"/>
		<path id="Forma 131" style="fill: none" d="m1465 482v1h-5v-1z"/>
		<path id="Forma 132" style="fill: none" d="m1450 585v6h-12v-6z"/>
		<path id="Forma 133" style="fill: none" d="m1458 585v4h-8v-4z"/>
		<path id="Forma 134" style="fill: none" d="m1466 585v2h-11v-2z"/>
		<path id="Forma 135" style="fill: none" d="m1446 591v1h-8v-1z"/>
		<path id="Forma 136" style="fill: none" d="m1454 589v1h-5v-1z"/>
		<path id="Forma 137" style="fill: none" d="m1462 587v1h-5v-1z"/>
		<path id="Forma 138" style="fill: none" d="m1442 592v1h-4v-1z"/>
	</g>
	<g id="Water Tank 22W">
		<path id="Forma 139" style="fill: none" d="m1664.9 494.5l87.2 38-87.2 38z"/>
		<path id="Forma 140" style="fill: none" d="m1689.8 508.3l1.1-2.7 67.5 28.4-1.2 2.8z"/>
		<path id="Forma 141" style="fill: none" d="m1760 532.8l1.1 2.8-95.2 37.8-1.1-2.8z"/>
		<path id="Forma 142" style="fill: none" d="m1752 532.8l1.2 2.8-86.4 35.4-1.2-2.8z"/>
		<path id="Forma 143" style="fill: none" d="m1758.8 532l-1.1 2.8-53.3-20.7 1-2.8z"/>
		<path id="Forma 144" style="fill: none" d="m1723.9 545.5l-1.1-2.8 25.9-10.1 1.1 2.8z"/>
		<path id="Forma 145" style="fill: none" d="m1736.2 544.1l-1.1-2.8 19.6-7.8 1.1 2.8z"/>
		<path id="Forma 146" style="fill: none" d="m1763 534v1h-6v-1z"/>
		<path id="Forma 147" style="fill: none" d="m1704 510v3h-1v-3z"/>
		<path id="Forma 148" style="fill: none" d="m1702 509v3h-1v-3z"/>
		<path id="Forma 149" style="fill: none" d="m1691 505v2h-1v-2z"/>
		<path id="Forma 150" style="fill: none" d="m1667 572v2h-2v-2z"/>
		<path id="Forma 151" style="fill: none" d="m1670 572v1h-3v-1z"/>
		<path id="Forma 152" style="fill: none" d="m1672 571v1h-3v-1z"/>
		<path id="Forma 153" style="fill: none" d="m1675 570v1h-3v-1z"/>
		<path id="Forma 154" style="fill: none" d="m1677 569v1h-4v-1z"/>
		<path id="Forma 155" style="fill: none" d="m1680 568v1h-3v-1z"/>
		<path id="Forma 156" style="fill: none" d="m1682 567v1h-3v-1z"/>
		<path id="Forma 157" style="fill: none" d="m1685 566v1h-4v-1z"/>
		<path id="Forma 158" style="fill: none" d="m1687 565v1h-3v-1z"/>
		<path id="Forma 159" style="fill: none" d="m1690 564v1h-3v-1z"/>
		<path id="Forma 160" style="fill: none" d="m1692 563v1h-7v-1z"/>
		<path id="Forma 161" style="fill: none" d="m1695 562v1h-7v-1z"/>
		<path id="Forma 162" style="fill: none" d="m1697 561v1h-6v-1z"/>
		<path id="Forma 163" style="fill: none" d="m1699 560v1h-7v-1z"/>
		<path id="Forma 164" style="fill: none" d="m1702 559v1h-5v-1z"/>
		<path id="Forma 165" style="fill: none" d="m1705 558v1h-5v-1z"/>
		<path id="Forma 166" style="fill: none" d="m1690 504v1h-7v-1z"/>
		<path id="Forma 167" style="fill: none" d="m1687 503v1h-6v-1z"/>
		<path id="Forma 168" style="fill: none" d="m1685 502v1h-6v-1z"/>
		<path id="Forma 169" style="fill: none" d="m1682 501v1h-9v-1z"/>
		<path id="Forma 170" style="fill: none" d="m1680 500v1h-6v-1z"/>
		<path id="Forma 171" style="fill: none" d="m1692 505v1h-6v-1z"/>
		<path id="Forma 172" style="fill: none" d="m1695 506v1h-3v-1z"/>
		<path id="Forma 173" style="fill: none" d="m1697 507v1h-5v-1z"/>
		<path id="Forma 174" style="fill: none" d="m1699 508v1h-7v-1z"/>
		<path id="Forma 175" style="fill: none" d="m1701 509v1h-2v-1z"/>
		<path id="Forma 176" style="fill: none" d="m1703 510v1h-4v-1z"/>
		<path id="Forma 177" style="fill: none" d="m1707 511v1h-6v-1z"/>
		<path id="Forma 178" style="fill: none" d="m1709 512v1h-2v-1z"/>
		<path id="Forma 179" style="fill: none" d="m1712 513v1h-3v-1z"/>
		<path id="Forma 180" style="fill: none" d="m1714 514v1h-3v-1z"/>
		<path id="Forma 181" style="fill: none" d="m1753 532v2h-10v-2z"/>
		<path id="Forma 182" style="fill: none" d="m1761 533v1h-5v-1z"/>
		<path id="Forma 183" style="fill: none" d="m1761 535v1h-4v-1z"/>
		<path id="Forma 184" style="fill: none" d="m1762 535v1h-5v-1z"/>
		<path id="Forma 185" style="fill: none" d="m1760 536v1h-5v-1z"/>
		<path id="Forma 186" style="fill: none" d="m1757 537v1h-4v-1z"/>
	</g>
	<g id="Fuel Tank 11 Port ">
		<path id="Forma 187" style="fill: none" d="m836 381v122h-48v-122z"/>
		<path id="Forma 188" style="fill: none" d="m836 380v1h-29v-1z"/>
		<path id="Forma 189" style="fill: none" d="m806.6 380.8l0.6 0.8-0.8 0.6-0.6-0.8z"/>
	</g>
	<g id="Fuel Tank 11 Stbd">
		<path id="Forma 191" style="fill: none" d="m836 688v1h-24v-1z"/>
		<path id="Forma 190" style="fill: none" d="m836 565v123h-48v-123z"/>
	</g>
	<g id="Fuel Tank Overflow">
		<path id="Forma 192" style="fill: none" d="m836 506v57h-48v-57z"/>
	</g>
	<g id="Fuel Tank 12 Port">
		<path id="Forma 193" style="fill: none" d="m1013 380v153h-174v-153z"/>
		<path id="Forma 194" style="fill: none" d="m1012 379v2h-157v-2z"/>
		<path id="Forma 195" style="fill: none" d="m1013 378v2h-116v-2z"/>
	</g>
	<g id="Fuel Tank 12 Stbd">
		<path id="Forma 196" style="fill: none" d="m1013 536v153h-174v-153z"/>
		<path id="Forma 197" style="fill: none" d="m1013 688v2h-84v-2z"/>
	</g>
	<g id="Fuel Tank 13 Port">
		<path id="Forma 198" style="fill: none" d="m1174 466v67h-159v-67z"/>
		<path id="Forma 199" style="fill: none" d="m1208 408v54h-143v-54z"/>
		<path id="Forma 200" style="fill: none" d="m1174 462v4h-109v-4z"/>
		<path id="Forma 201" style="fill: none" d="m1065 464v2h-1v-2z"/>
		<path id="Forma 202" style="fill: none" d="m1107 385v23h-42v-23z"/>
		<path id="Forma 203" style="fill: none" d="m1198 405v4h-100v-4z"/>
		<path id="Forma 204" style="fill: none" d="m1148 392v14h-44v-14z"/>
		<path id="Forma 205" style="fill: none" d="m1205 407v1h-7v-1z"/>
		<path id="Forma 206" style="fill: none" d="m1202 406v1h-6v-1z"/>
		<path id="Forma 207" style="fill: none" d="m1199 405v1h-3v-1z"/>
		<path id="Forma 208" style="fill: none" d="m1177 399v11h-35v-11z"/>
		<path id="Forma 209" style="fill: none" d="m1184 401v5h-9v-5z"/>
		<path id="Forma 210" style="fill: none" d="m1188 402v6h-7v-6z"/>
		<path id="Forma 211" style="fill: none" d="m1191 403v4h-5v-4z"/>
		<path id="Forma 212" style="fill: none" d="m1195 404v1h-6v-1z"/>
		<path id="Forma 213" style="fill: none" d="m1181 400v1h-5v-1z"/>
		<path id="Forma 214" style="fill: none" d="m1174 398v1h-28v-1z"/>
		<path id="Forma 215" style="fill: none" d="m1159 394v11h-13v-11z"/>
		<path id="Forma 216" style="fill: none" d="m1163 395v9h-5v-9z"/>
		<path id="Forma 217" style="fill: none" d="m1166 396v5h-4v-5z"/>
		<path id="Forma 218" style="fill: none" d="m1170 397v1h-8v-1z"/>
		<path id="Forma 219" style="fill: none" d="m1154 393v1h-8v-1z"/>
		<path id="Forma 220" style="fill: none" d="m1125 388v6h-20v-6z"/>
		<path id="Forma 221" style="fill: none" d="m1132 389v6h-10v-6z"/>
		<path id="Forma 222" style="fill: none" d="m1137 390v4h-6v-4z"/>
		<path id="Forma 223" style="fill: none" d="m1142 391v1h-7v-1z"/>
		<path id="Forma 224" style="fill: none" d="m1119 387v1h-14v-1z"/>
		<path id="Forma 225" style="fill: none" d="m1081 382v3h-16v-3z"/>
		<path id="Forma 226" style="fill: none" d="m1091 383v3h-10v-3z"/>
		<path id="Forma 227" style="fill: none" d="m1103 384v1h-13v-1z"/>
		<path id="Forma 228" style="fill: none" d="m1114 386v1h-8v-1z"/>
		<path id="Forma 229" style="fill: none" d="m1071 381v1h-6v-1z"/>
		<path id="Forma 230" style="fill: none" d="m1108 385v1h-3v-1z"/>
	</g>
	<g id="Fuel Tank 13 Stbd">
		<path id="Forma 231" style="fill: none" d="m1174 536v68h-159v-68z"/>
		<path id="Forma 245" style="fill: none" d="m1167 667v5h-13v-5z"/>
		<path id="Forma 241" style="fill: none" d="m1128 677v4h-11v-4z"/>
		<path id="Forma 239" style="fill: none" d="m1094 682v3h-10v-3z"/>
		<path id="Forma 235" style="fill: none" d="m1135 656v24h-69v-24z"/>
		<path id="Forma 236" style="fill: none" d="m1178 655v14h-45v-14z"/>
		<path id="Forma 240" style="fill: none" d="m1119 677v5h-18v-5z"/>
		<path id="Forma 234" style="fill: none" d="m1066 602v3h-1v-3z"/>
		<path id="Forma 232" style="fill: none" d="m1208 608v53h-142v-53z"/>
		<path id="Forma 233" style="fill: none" d="m1174 604v4h-108v-4z"/>
		<path id="Forma 237" style="fill: none" d="m1102 677v7h-36v-7z"/>
		<path id="Forma 238" style="fill: none" d="m1084 681v5h-18v-5z"/>
		<path id="Forma 244" style="fill: none" d="m1156 668v7h-25v-7z"/>
		<path id="Forma 242" style="fill: none" d="m1111 682v1h-11v-1z"/>
		<path id="Forma 243" style="fill: none" d="m1076 686v1h-10v-1z"/>
		<path id="Forma 246" style="fill: none" d="m1175 668v2h-11v-2z"/>
		<path id="Forma 247" style="fill: none" d="m1164 671v2h-10v-2z"/>
		<path id="Forma 248" style="fill: none" d="m1171 670v1h-5v-1z"/>
		<path id="Forma 249" style="fill: none" d="m1160 673v1h-7v-1z"/>
		<path id="Forma 250" style="fill: none" d="m1148 674v3h-15v-3z"/>
		<path id="Forma 251" style="fill: none" d="m1152 675v1h-6v-1z"/>
		<path id="Forma 252" style="fill: none" d="m1144 677v1h-11v-1z"/>
		<path id="Forma 253" style="fill: none" d="m1141 678v1h-7v-1z"/>
		<path id="Forma 254" style="fill: none" d="m1194 660v5h-18v-5z"/>
		<path id="Forma 255" style="fill: none" d="m1198 661v3h-5v-3z"/>
		<path id="Forma 256" style="fill: none" d="m1202 661v2h-6v-2z"/>
		<path id="Forma 257" style="fill: none" d="m1206 661v1h-4v-1z"/>
		<path id="Forma 258" style="fill: none" d="m1190 665v1h-12v-1z"/>
		<path id="Forma 259" style="fill: none" d="m1183 665v3h-6v-3z"/>
		<path id="Forma 260" style="fill: none" d="m1187 666v1h-5v-1z"/>
	</g>
	<g id="Waste Fwd Sewage Tank">
		<path id="Forma 261" style="fill: #2e485a" d="m1208 465v140h-32v-140z"/>
	</g>
	<g id="Waste Sludge Tank">
		<path id="Forma 262" style="fill: #2e485a" d="m608 390v33h-31v-33z"/>
		<path id="Forma 263" style="fill: #2e485a" d="m608 389v1h-19v-1z"/>
	</g>
	<g id="Waste Bilge Tank">
		<path id="Forma 264" style="fill: #2e485a" d="m541 495v78h-30v-78z"/>
	</g>
	<g id="Waste Aft Sewage Tank">
		<path id="Forma 284" style="fill: #2e485a" d="m622 565v1h-5v-1z"/>
		<path id="Forma 265" style="fill: #2e485a" d="m624 505v60h-31v-60z"/>
		<path id="Forma 267" style="fill: #2e485a" d="m623 504v1h-19v-1z"/>
		<path id="Forma 271" style="fill: #2e485a" d="m599 496v1h-6v-1z"/>
		<path id="Forma 272" style="fill: #2e485a" d="m596 495v1h-3v-1z"/>
		<path id="Forma 268" style="fill: #2e485a" d="m611 500v5h-9v-5z"/>
		<path id="Forma 269" style="fill: #2e485a" d="m617 502v3h-7v-3z"/>
		<path id="Forma 273" style="fill: #2e485a" d="m608 499v1h-3v-1z"/>
		<path id="Forma 275" style="fill: #2e485a" d="m620 503v1h-3v-1z"/>
		<path id="Forma 277" style="fill: #2e485a" d="m618 564v3h-9v-3z"/>
		<path id="Forma 278" style="fill: #2e485a" d="m600 568v4h-7v-4z"/>
		<path id="Forma 276" style="fill: #2e485a" d="m610 564v5h-17v-5z"/>
		<path id="Forma 274" style="fill: #2e485a" d="m614 501v1h-3v-1z"/>
		<path id="Forma 279" style="fill: #2e485a" d="m597 572v1h-4v-1z"/>
		<path id="Forma 270" style="fill: #2e485a" d="m602 497v1h-9v-1z"/>
		<path id="Forma 281" style="fill: #2e485a" d="m607 569v1h-7v-1z"/>
		<path id="Forma 282" style="fill: #2e485a" d="m611 568v1h-2v-1z"/>
		<path id="Forma 283" style="fill: #2e485a" d="m615 567v1h-6v-1z"/>
		<path id="Forma 280" style="fill: #2e485a" d="m604 570v1h-4v-1z"/>
		<path id="Forma 266" style="fill: #2e485a" d="m605 498v8h-12v-8z"/>
	</g>
	<g id="Dirty Oil">
		<path id="Forma 285" style="fill: #2e485a" d="m591 495v38h-47v-38z"/>
	</g>
	<g id="Clean Oil">
		<path id="Forma 286" style="fill: #2e485a" d="m591 536v37h-47v-37z"/>
	</g>
</svg>